# File produced by Open Asset Import Library (http://www.assimp.sf.net)
# (assimp v3.1.31193554)

mtllib SecurityCamera.mtl

# vertex positions
v -27.284866 -47.275654 192.691956
v 27.284866 -47.275654 192.691956
v 27.284866 -138.105499 192.691956
v -27.672869 -47.583065 199.474075
v -27.672869 -47.583065 193.079956
v -27.672869 -138.237885 193.079956
v 27.284866 -47.275654 199.862076
v -27.284866 -47.275654 199.862076
v -27.284866 -138.105499 199.862076
v 27.672869 -47.583065 193.079956
v 27.672869 -47.583065 199.474075
v 27.672869 -138.237885 199.474075
v -26.896870 -46.968246 199.474075
v 26.896870 -46.968246 199.474075
v 26.896870 -46.968246 193.079956
v -5.932853 -154.526794 193.079956
v 5.932853 -154.526794 193.079956
v 5.932853 -154.526794 199.474075
v 27.672869 -138.237885 193.079956
v -27.284866 -138.105499 192.691956
v 5.778446 -154.219391 192.691956
v -27.672869 -138.237885 199.474075
v 27.284866 -138.105499 199.862076
v -5.778446 -154.219391 199.862076
v -5.778446 -154.219391 192.691956
v 5.778446 -154.219391 199.862076
v -5.932853 -154.526794 199.474075
v -26.896870 -46.968246 193.079956
v -9.761353 -95.280853 0.797600
v 9.761353 -95.280853 0.797600
v 9.761353 -121.879730 0.797600
v -12.633683 -95.280853 101.361336
v -9.761353 -121.879730 0.797600
v 14.931546 -95.280487 196.341827
v -14.931546 -95.280487 196.341827
v -14.931546 -135.935410 196.341827
v 14.069847 -95.280487 153.017822
v 14.931546 -135.935410 196.341827
v -11.234239 -94.121841 101.400772
v 11.234239 -94.121841 101.400764
v 8.400770 -94.121841 2.197601
v -12.670213 -125.900978 152.791214
v 12.670213 -125.900978 152.791214
v 13.504712 -136.695511 194.588959
v 12.633683 -121.879730 101.361336
v 12.633683 -95.280853 101.361336
v -11.234235 -123.040771 101.353714
v 11.234235 -123.040771 101.353714
v -14.069847 -95.280487 153.017822
v -13.503423 -94.121483 194.941833
v 13.503423 -94.121483 194.941833
v 12.630383 -94.121490 151.617798
v -8.400770 -123.039284 2.197601
v 8.400770 -123.039284 2.197601
v -14.069847 -124.749344 153.017822
v -12.630383 -94.121490 151.617798
v -8.400770 -94.121841 2.197601
v 14.069847 -124.749344 153.017822
v -13.504712 -136.695511 194.588959
v -12.633683 -121.879730 101.361336
v -12.153547 -131.249649 -1.346985
v -13.154904 -131.249649 -6.381149
v 0.000000 -131.249649 -6.381149
v -19.595184 -83.320236 1.735443
v -21.209675 -83.320236 -6.381149
v -21.209675 -123.349640 -6.381149
v 0.000000 -83.320236 -6.381149
v -9.301921 -131.249649 2.920780
v -14.997504 -83.320236 8.616356
v -19.595184 -123.349640 1.735443
v -5.034164 -131.249649 5.772400
v -8.116591 -83.320236 13.214035
v -14.997504 -123.349640 8.616356
v 0.000000 -131.249649 6.773762
v 0.000000 -83.320236 14.828533
v -8.116591 -123.349640 13.214035
v 5.034164 -131.249649 5.772400
v 8.116591 -83.320236 13.214035
v 0.000000 -123.349640 14.828533
v 9.301921 -131.249649 2.920780
v 14.997504 -83.320236 8.616356
v 8.116591 -123.349640 13.214035
v 12.153547 -131.249649 -1.346985
v 19.595184 -83.320236 1.735443
v 14.997504 -123.349640 8.616356
v 13.154904 -131.249649 -6.381149
v 21.209675 -83.320236 -6.381149
v 19.595184 -123.349640 1.735443
v 12.153547 -131.249649 -11.415314
v 19.595184 -83.320236 -14.497742
v 21.209675 -123.349640 -6.381149
v 9.301921 -131.249649 -15.683067
v 14.997504 -83.320236 -21.378654
v 19.595184 -123.349640 -14.497742
v 5.034164 -131.249649 -18.534698
v 8.116591 -83.320236 -25.976334
v 14.997504 -123.349640 -21.378654
v 0.000000 -131.249649 -19.536057
v 0.000000 -83.320236 -27.590820
v 8.116591 -123.349640 -25.976334
v -5.034164 -131.249649 -18.534698
v -8.116591 -83.320236 -25.976334
v 0.000000 -123.349640 -27.590820
v -9.301921 -131.249649 -15.683067
v -14.997504 -83.320236 -21.378654
v -8.116591 -123.349640 -25.976334
v -12.153547 -131.249649 -11.415314
v -19.595184 -83.320236 -14.497742
v -14.997504 -123.349640 -21.378654
v -19.595184 -123.349640 -14.497742
v -15.792818 -130.240494 0.160454
v -17.094023 -130.240494 -6.381149
v -18.644592 -127.213074 1.341694
v -20.180759 -127.213074 -6.381149
v -12.087298 -130.240494 5.706154
v -14.269954 -127.213074 7.888805
v -6.541599 -130.240494 9.411671
v -7.722843 -127.213074 12.263443
v 0.000000 -130.240494 10.712875
v 0.000000 -127.213074 13.799614
v 6.541599 -130.240494 9.411671
v 7.722843 -127.213074 12.263443
v 12.087298 -130.240494 5.706154
v 14.269954 -127.213074 7.888805
v 15.792818 -130.240494 0.160454
v 18.644592 -127.213074 1.341694
v 17.094023 -130.240494 -6.381149
v 20.180759 -127.213074 -6.381149
v 15.792818 -130.240494 -12.922745
v 18.644592 -127.213074 -14.103989
v 12.087298 -130.240494 -18.468437
v 14.269954 -127.213074 -20.651100
v 6.541599 -130.240494 -22.173965
v 7.722843 -127.213074 -25.025742
v 0.000000 -130.240494 -23.475174
v 0.000000 -127.213074 -26.561905
v -6.541599 -130.240494 -22.173965
v -7.722843 -127.213074 -25.025742
v -12.087298 -130.240494 -18.468437
v -14.269954 -127.213074 -20.651100
v -15.792818 -130.240494 -12.922745
v -18.644592 -127.213074 -14.103989
v -13.305866 -99.436790 -0.881481
v -14.402166 -99.436790 -6.392952
v -7.794396 -103.851959 -6.392952
v -10.183869 -99.436790 3.790916
v -7.201083 -103.851959 -3.410164
v -5.511470 -99.436790 6.912914
v -5.511470 -103.851959 -0.881481
v 0.000000 -99.436790 8.009220
v -2.982786 -103.851959 0.808132
v 5.511470 -99.436790 6.912914
v 0.000000 -103.851959 1.401443
v 10.183869 -99.436790 3.790916
v 2.982786 -103.851959 0.808132
v 13.305866 -99.436790 -0.881481
v 5.511470 -103.851959 -0.881481
v 14.402166 -99.436790 -6.392952
v 7.201083 -103.851959 -3.410164
v 13.305866 -99.436790 -11.904419
v 7.794396 -103.851959 -6.392952
v 10.183869 -99.436790 -16.576820
v 7.201083 -103.851959 -9.375740
v 5.511470 -99.436790 -19.698822
v 5.511470 -103.851959 -11.904419
v 0.000000 -99.436790 -20.795120
v 2.982786 -103.851959 -13.594032
v -5.511470 -99.436790 -19.698822
v 0.000000 -103.851959 -14.187347
v -10.183869 -99.436790 -16.576820
v -2.982786 -103.851959 -13.594032
v -13.305866 -99.436790 -11.904419
v -5.511470 -103.851959 -11.904419
v -7.201083 -103.851959 -9.375740
v -17.384953 -92.829018 0.808132
v -18.817335 -92.829018 -6.392952
v -13.305866 -92.829018 6.912914
v -7.201083 -92.829018 10.992004
v 0.000000 -92.829018 12.424385
v 7.201083 -92.829018 10.992004
v 13.305866 -92.829018 6.912914
v 17.384953 -92.829018 0.808132
v 18.817335 -92.829018 -6.392952
v 17.384953 -92.829018 -13.594032
v 13.305866 -92.829018 -19.698822
v 7.201083 -92.829018 -23.777908
v 0.000000 -92.829018 -25.210289
v -7.201083 -92.829018 -23.777908
v -13.305866 -92.829018 -19.698822
v -17.384953 -92.829018 -13.594032
v -18.817335 -85.034622 1.401443
v -20.367739 -85.034622 -6.392952
v -14.402166 -85.034622 8.009220
v -7.794396 -85.034622 12.424385
v 0.000000 -85.034622 13.974792
v 7.794396 -85.034622 12.424385
v 14.402166 -85.034622 8.009220
v 18.817335 -85.034622 1.401443
v 20.367739 -85.034622 -6.392952
v 18.817335 -85.034622 -14.187347
v 14.402166 -85.034622 -20.795120
v 7.794396 -85.034622 -25.210289
v 0.000000 -85.034622 -26.760689
v -7.794396 -85.034622 -25.210289
v -14.402166 -85.034622 -20.795120
v -18.817335 -85.034622 -14.187347
v -17.384953 -77.240227 0.808132
v -18.817335 -77.240227 -6.392952
v -13.305866 -77.240227 6.912914
v -7.201083 -77.240227 10.992004
v 0.000000 -77.240227 12.424385
v 7.201083 -77.240227 10.992004
v 13.305866 -77.240227 6.912914
v 17.384953 -77.240227 0.808132
v 18.817335 -77.240227 -6.392952
v 17.384953 -77.240227 -13.594032
v 13.305866 -77.240227 -19.698822
v 7.201083 -77.240227 -23.777908
v 0.000000 -77.240227 -25.210289
v -7.201083 -77.240227 -23.777908
v -13.305866 -77.240227 -19.698822
v -17.384953 -77.240227 -13.594032
v -13.305866 -70.632454 -0.881481
v -14.402166 -70.632454 -6.392952
v -10.183869 -70.632454 3.790916
v -5.511470 -70.632454 6.912914
v 0.000000 -70.632454 8.009220
v 5.511470 -70.632454 6.912914
v 10.183869 -70.632454 3.790916
v 13.305866 -70.632454 -0.881481
v 14.402166 -70.632454 -6.392952
v 13.305866 -70.632454 -11.904419
v 10.183869 -70.632454 -16.576820
v 5.511470 -70.632454 -19.698822
v 0.000000 -70.632454 -20.795120
v -5.511470 -70.632454 -19.698822
v -10.183869 -70.632454 -16.576820
v -13.305866 -70.632454 -11.904419
v -7.201083 -66.217285 -3.410164
v -7.794396 -66.217285 -6.392952
v -5.511470 -66.217285 -0.881481
v -2.982786 -66.217285 0.808132
v 0.000000 -66.217285 1.401443
v 2.982786 -66.217285 0.808132
v 5.511470 -66.217285 -0.881481
v 7.201083 -66.217285 -3.410164
v 7.794396 -66.217285 -6.392952
v 7.201083 -66.217285 -9.375740
v 5.511470 -66.217285 -11.904419
v 2.982786 -66.217285 -13.594032
v 0.000000 -66.217285 -14.187347
v -2.982786 -66.217285 -13.594032
v -5.511470 -66.217285 -11.904419
v -7.201083 -66.217285 -9.375740
v 0.000000 -105.402359 -6.392952
v 0.000000 -64.666885 -6.392952
v -15.369541 -49.672077 1.588352
v 15.369541 -49.672077 1.588352
v 15.369541 -77.544556 -8.556400
v -15.369541 -52.347034 8.937744
v -15.369541 -77.544556 -8.556400
v 15.369541 -52.347034 8.937744
v -15.369541 -80.219521 -1.207012
v 15.369541 -80.219521 -1.207012
v -22.449104 -33.206612 -0.825527
v 22.449104 -33.206612 -0.825527
v 22.449104 -49.884708 -0.825527
v -22.449104 -33.206612 24.649817
v -22.449104 -49.884708 -0.825527
v 22.449104 -33.206612 24.649817
v -22.449104 -49.884708 24.649817
v 22.449104 -49.884708 24.649817
v -20.492563 -53.184708 -0.825527
v 20.492563 -53.184708 -0.825527
v 20.492563 -53.184708 24.649817
v -20.492563 -53.184708 24.649817
v -45.584721 18.881813 69.881027
v -49.340549 -0.000004 69.881027
v 0.000000 -0.000004 69.881027
v -46.937565 19.442177 -60.171036
v -50.696198 0.546253 -60.171036
v -50.696198 0.546253 60.171032
v -38.365555 15.891533 -70.778595
v 0.000000 -0.000004 -70.778595
v -41.526573 -0.000004 -70.778595
v -34.889038 34.889038 69.881027
v -35.924458 35.924461 -60.171036
v -46.937565 19.442177 60.171032
v -29.363724 29.363724 -70.778595
v -18.881811 45.584724 69.881027
v -19.442177 46.937569 -60.171036
v -35.924458 35.924461 60.171032
v -15.891533 38.365547 -70.778595
v 0.000000 49.340553 69.881027
v 0.000000 50.804855 -60.171036
v -19.442177 46.937569 60.171032
v 0.000000 41.526566 -70.778595
v 18.881811 45.584724 69.881027
v 19.442177 46.937569 -60.171036
v 0.000000 50.804855 60.171032
v 15.891533 38.365547 -70.778595
v 34.889038 34.889038 69.881027
v 35.924458 35.924461 -60.171036
v 19.442177 46.937569 60.171032
v 29.363724 29.363724 -70.778595
v 45.584721 18.881813 69.881027
v 46.937565 19.442177 -60.171036
v 35.924458 35.924461 60.171032
v 38.365555 15.891533 -70.778595
v 49.340549 -0.000004 69.881027
v 50.696198 0.546253 -60.171036
v 46.937565 19.442177 60.171032
v 41.526573 -0.000004 -70.778595
v 45.584721 -18.881813 69.881027
v 44.300018 -18.349670 -60.171036
v 47.950001 -0.000004 -60.171036
v 47.950001 -0.000004 60.171032
v 38.365555 -15.891533 -70.778595
v 34.889038 -34.889038 69.881027
v 33.905769 -33.905769 -60.171036
v 44.300018 -18.349670 60.171032
v 29.363724 -29.363724 -70.778595
v 18.881811 -45.584724 69.881027
v 18.349670 -44.300022 -60.171036
v 33.905769 -33.905769 60.171032
v 15.891533 -38.365555 -70.778595
v 0.000000 -49.340549 69.881027
v 0.000000 -47.950001 -60.171036
v 18.349670 -44.300022 60.171032
v 0.000000 -41.526577 -70.778595
v -18.881811 -45.584724 69.881027
v -18.349670 -44.300022 -60.171036
v 0.000000 -47.950001 60.171032
v -15.891533 -38.365555 -70.778595
v -34.889038 -34.889038 69.881027
v -33.905769 -33.905769 -60.171036
v -18.349670 -44.300022 60.171032
v -29.363724 -29.363724 -70.778595
v -45.584721 -18.881813 69.881027
v -44.300018 -18.349670 -60.171036
v -33.905769 -33.905769 60.171032
v -38.365555 -15.891533 -70.778595
v -47.950001 -0.000004 -60.171036
v -44.300018 -18.349670 60.171032
v -44.300018 18.349670 -60.171036
v -42.133472 17.452255 -60.171036
v -33.905769 33.905769 -60.171036
v -32.247562 32.247566 -60.171036
v -18.349670 44.300026 -60.171036
v -17.452255 42.133476 -60.171036
v 0.000000 47.950005 -60.171036
v 0.000000 45.604942 -60.171036
v 18.349670 44.300026 -60.171036
v 17.452255 42.133476 -60.171036
v 33.905769 33.905769 -60.171036
v 32.247562 32.247566 -60.171036
v 44.300018 18.349670 -60.171036
v 42.133472 17.452255 -60.171036
v 45.604939 -0.000004 -60.171036
v 42.133472 -17.452255 -60.171036
v 32.247562 -32.247562 -60.171036
v 17.452255 -42.133472 -60.171036
v 0.000000 -45.604939 -60.171036
v -17.452255 -42.133472 -60.171036
v -32.247562 -32.247562 -60.171036
v -42.133472 -17.452255 -60.171036
v -45.604939 -0.000004 -60.171036
v -42.133472 17.452255 -70.778595
v -32.247562 32.247566 -77.809555
v -17.452255 42.133476 -81.245956
v 0.000000 45.604942 -81.245956
v 17.452255 42.133476 -81.245956
v 32.247562 32.247566 -77.809555
v 42.133472 17.452255 -70.778595
v 45.604939 -0.000004 -70.778595
v 42.133472 -17.452255 -70.778595
v 32.247562 -32.247562 -70.778595
v 17.452255 -42.133472 -70.778595
v 0.000000 -45.604939 -70.778595
v -17.452255 -42.133472 -70.778595
v -32.247562 -32.247562 -70.778595
v -42.133472 -17.452255 -70.778595
v -45.604939 -0.000004 -70.778595
v -44.483391 -0.000004 -71.676155
v -41.097294 17.023056 -71.676155
v -39.401730 16.320732 -71.676155
v -31.454506 31.454506 -78.707123
v -30.156778 30.156776 -78.707123
v -17.023056 41.097290 -82.143509
v -16.320732 39.401726 -82.143509
v 0.000000 44.483383 -82.143509
v 0.000000 42.648125 -82.143509
v 17.023056 41.097290 -82.143509
v 16.320732 39.401726 -82.143509
v 31.454506 31.454506 -78.707123
v 30.156778 30.156776 -78.707123
v 41.097294 17.023056 -71.676155
v 39.401730 16.320732 -71.676155
v 44.483391 -0.000004 -71.676155
v 42.648125 -0.000004 -71.676155
v 41.097294 -17.023056 -71.676155
v 39.401730 -16.320732 -71.676155
v 31.454506 -31.454506 -71.676155
v 30.156778 -30.156778 -71.676155
v 17.023056 -41.097294 -71.676155
v 16.320732 -39.401730 -71.676155
v 0.000000 -44.483391 -71.676155
v 0.000000 -42.648125 -71.676155
v -17.023056 -41.097294 -71.676155
v -16.320732 -39.401730 -71.676155
v -31.454506 -31.454506 -71.676155
v -30.156778 -30.156778 -71.676155
v -41.097294 -17.023056 -71.676155
v -39.401730 -16.320732 -71.676155
v -42.648125 -0.000004 -71.676155
v -44.300018 18.349670 60.171032
v -47.950001 -0.000004 60.171032
v -49.340549 -0.000004 61.313385
v -33.905769 33.905769 60.171032
v -45.584721 18.881813 61.313385
v -18.349670 44.300026 60.171032
v -34.889038 34.889038 61.313385
v 0.000000 47.950005 60.171032
v -18.881811 45.584724 61.313385
v 18.349670 44.300026 60.171032
v 0.000000 49.340553 61.313385
v 33.905769 33.905769 60.171032
v 18.881811 45.584724 61.313385
v 44.300018 18.349670 60.171032
v 34.889038 34.889038 61.313385
v 45.584721 18.881813 61.313385
v 49.340549 -0.000004 61.313385
v 45.584721 -18.881813 61.313385
v 34.889038 -34.889038 61.313385
v 18.881811 -45.584724 61.313385
v 0.000000 -49.340549 61.313385
v -18.881811 -45.584724 61.313385
v -34.889038 -34.889038 61.313385
v -45.584721 -18.881813 61.313385
v -44.300018 18.349670 -84.066772
v -47.950001 -0.000004 -76.076401
v -50.696198 0.546253 -76.076401
v -47.950001 -0.000004 77.061531
v -44.300018 18.349670 77.061531
v -46.937565 19.442177 77.061531
v -33.905769 33.905769 -89.464218
v -46.937565 19.442177 -84.066772
v -33.905769 33.905769 77.061531
v -35.924458 35.924461 77.061531
v -18.349670 44.300026 -89.464218
v -35.924458 35.924461 -89.464218
v -18.349670 44.300026 77.061531
v -19.442177 46.937569 77.061531
v 0.000000 47.950005 -89.464218
v -19.442177 46.937569 -89.464218
v 0.000000 47.950005 77.061531
v 0.000000 50.804855 77.061531
v 18.349670 44.300026 -89.464218
v 0.000000 50.804855 -89.464218
v 18.349670 44.300026 77.061531
v 19.442177 46.937569 77.061531
v 33.905769 33.905769 -89.464218
v 19.442177 46.937569 -89.464218
v 33.905769 33.905769 77.061531
v 35.924458 35.924461 77.061531
v 44.300018 18.349670 -84.066772
v 35.924458 35.924461 -89.464218
v 44.300018 18.349670 77.061531
v 46.937565 19.442177 77.061531
v 47.950001 -0.000004 -76.076401
v 46.937565 19.442177 -84.066772
v 47.950001 -0.000004 77.061531
v 50.696198 0.546253 77.061531
v 50.696198 0.546253 -76.076401
v -50.696198 0.546253 77.061531
v 50.696198 0.546253 60.171032

# UV coordinates
vt 0.636147 0.436145
vt 0.506175 0.436145
vt 0.506175 0.183304
vt 0.357054 0.435289
vt 0.341824 0.435289
vt 0.341824 0.182935
vt 0.488332 0.436145
vt 0.358361 0.436145
vt 0.358361 0.183304
vt 0.504868 0.435289
vt 0.489639 0.435289
vt 0.489639 0.182935
vt 0.635222 0.455322
vt 0.507099 0.455322
vt 0.507099 0.437523
vt 0.584924 0.137023
vt 0.557398 0.137023
vt 0.557398 0.119688
vt 0.504868 0.182935
vt 0.489639 0.107316
vt 0.636147 0.183304
vt 0.557398 0.138448
vt 0.357054 0.182935
vt 0.341824 0.107316
vt 0.488332 0.183304
vt 0.409584 0.138448
vt 0.340518 0.436145
vt 0.340518 0.183304
vt 0.357978 0.436667
vt 0.340900 0.436667
vt 0.505792 0.436667
vt 0.488715 0.436667
vt 0.584924 0.138448
vt 0.557398 0.118263
vt 0.584924 0.118263
vt 0.584924 0.119688
vt 0.488412 0.182292
vt 0.488412 0.107316
vt 0.506095 0.107316
vt 0.506095 0.182292
vt 0.340597 0.182292
vt 0.340597 0.107316
vt 0.358280 0.107316
vt 0.358280 0.182292
vt 0.504868 0.438045
vt 0.487408 0.437523
vt 0.357054 0.438045
vt 0.635222 0.437523
vt 0.517929 0.565788
vt 0.476664 0.565788
vt 0.476762 0.506859
vt 0.730586 0.566780
vt 0.518026 0.506859
vt 0.063205 0.565789
vt 0.000081 0.565830
vt 0.000177 0.475757
vt 0.154792 0.565789
vt 0.063301 0.475716
vt 0.935253 0.223003
vt 0.989285 0.224563
vt 0.975701 0.466460
vt 0.859087 0.880512
vt 0.919810 0.895087
vt 0.924464 0.999918
vt 0.265143 0.490919
vt 0.264019 0.565788
vt 0.859997 0.755360
vt 0.914258 0.770065
vt 0.855666 0.274383
vt 0.855666 0.366862
vt 0.758312 0.366862
vt 0.066106 0.629646
vt 0.066217 0.569815
vt 0.157805 0.569835
vt 0.861735 0.516222
vt 0.903650 0.531176
vt 0.840204 0.501999
vt 0.839819 0.567290
vt 0.935277 0.100359
vt 0.996162 0.102116
vt 0.299707 0.620912
vt 0.541808 0.620912
vt 0.538534 0.626155
vt 0.930823 0.468613
vt 0.930823 0.223002
vt 0.978856 0.470990
vt 0.931802 0.469632
vt 0.935206 0.465291
vt 0.175350 0.621000
vt 0.299708 0.626212
vt 0.931933 0.095823
vt 0.999756 0.097781
vt 0.930897 0.096842
vt 0.156035 0.482701
vt 0.080447 0.473382
vt 0.932241 0.485271
vt 0.840254 0.486394
vt 0.003197 0.471522
vt 0.168447 0.479951
vt 0.730756 0.503650
vt 0.735100 0.491804
vt 0.273398 0.487786
vt 0.479644 0.502832
vt 0.534174 0.502141
vt 0.060182 0.569818
vt 0.154667 0.633709
vt 0.063080 0.633671
vt 0.161918 0.566426
vt 0.161795 0.633075
vt 0.157694 0.629665
vt 0.860717 0.426553
vt 0.868562 0.416126
vt 0.894149 0.438852
vt 0.636635 0.427452
vt 0.636635 0.408023
vt 0.726745 0.408023
vt 0.786713 0.371301
vt 0.806297 0.419173
vt 0.770110 0.382534
vt 0.857963 0.438852
vt 0.636635 0.446880
vt 0.726745 0.427452
vt 0.806297 0.367357
vt 0.860717 0.451150
vt 0.636635 0.466309
vt 0.726745 0.446880
vt 0.825882 0.371301
vt 0.868562 0.461577
vt 0.636635 0.485738
vt 0.726745 0.466309
vt 0.842485 0.382534
vt 0.880301 0.468544
vt 0.636635 0.194308
vt 0.636635 0.174880
vt 0.726745 0.174880
vt 0.853579 0.399344
vt 0.894149 0.470990
vt 0.636635 0.213737
vt 0.726745 0.194308
vt 0.857474 0.419173
vt 0.907997 0.468544
vt 0.636635 0.233166
vt 0.726745 0.213737
vt 0.853579 0.439003
vt 0.919736 0.461577
vt 0.636635 0.252594
vt 0.726745 0.233166
vt 0.842485 0.455813
vt 0.927580 0.451150
vt 0.636635 0.272023
vt 0.726745 0.252594
vt 0.825882 0.467046
vt 0.930335 0.438852
vt 0.636635 0.291451
vt 0.726745 0.272023
vt 0.806297 0.470990
vt 0.927580 0.426553
vt 0.636635 0.310880
vt 0.726745 0.291451
vt 0.786713 0.467046
vt 0.919736 0.416126
vt 0.636635 0.330309
vt 0.726745 0.310880
vt 0.770110 0.455813
vt 0.907997 0.409160
vt 0.636635 0.349737
vt 0.726745 0.330309
vt 0.759016 0.439003
vt 0.894149 0.406713
vt 0.636635 0.369166
vt 0.726745 0.349737
vt 0.755120 0.419173
vt 0.880301 0.409160
vt 0.636635 0.388595
vt 0.726745 0.369166
vt 0.759016 0.399344
vt 0.726745 0.388595
vt 0.745478 0.427452
vt 0.745478 0.408023
vt 0.754632 0.408023
vt 0.735745 0.427452
vt 0.735745 0.408023
vt 0.745478 0.446880
vt 0.754632 0.427452
vt 0.735745 0.446880
vt 0.745478 0.466309
vt 0.754632 0.446880
vt 0.735745 0.466309
vt 0.745478 0.485738
vt 0.754632 0.466309
vt 0.735745 0.485738
vt 0.726745 0.485738
vt 0.745478 0.194308
vt 0.745478 0.174880
vt 0.754632 0.174880
vt 0.735745 0.194308
vt 0.735745 0.174880
vt 0.745478 0.213737
vt 0.754632 0.194308
vt 0.735745 0.213737
vt 0.745478 0.233166
vt 0.754632 0.213737
vt 0.735745 0.233166
vt 0.745478 0.252594
vt 0.754632 0.233166
vt 0.735745 0.252594
vt 0.745478 0.272023
vt 0.754632 0.252594
vt 0.735745 0.272023
vt 0.745478 0.291451
vt 0.754632 0.272023
vt 0.735745 0.291451
vt 0.745478 0.310880
vt 0.754632 0.291451
vt 0.735745 0.310880
vt 0.745478 0.330309
vt 0.754632 0.310880
vt 0.735745 0.330309
vt 0.745478 0.349737
vt 0.754632 0.330309
vt 0.735745 0.349737
vt 0.745478 0.369166
vt 0.754632 0.349737
vt 0.735745 0.369166
vt 0.745478 0.388595
vt 0.754632 0.369166
vt 0.735745 0.388595
vt 0.754632 0.388595
vt 0.504868 0.107316
vt 0.357054 0.107316
vt 0.437109 0.138448
vt 0.489639 0.438045
vt 0.359285 0.437523
vt 0.341824 0.438045
vt 0.858325 0.985452
vt 0.755120 0.274383
vt 0.178816 0.626240
vt 0.928425 0.481858
vt 0.060289 0.471485
vt 0.473936 0.502756
vt 0.515157 0.502832
vt 0.003096 0.569855
vt 0.754632 0.485738
vt 0.885386 0.078201
vt 0.870403 0.078201
vt 0.870403 0.058964
vt 0.900369 0.078201
vt 0.885386 0.058964
vt 0.915352 0.078201
vt 0.900369 0.058964
vt 0.930335 0.078201
vt 0.915352 0.058964
vt 0.705590 0.078201
vt 0.690607 0.078201
vt 0.690607 0.058964
vt 0.720573 0.078201
vt 0.705590 0.058964
vt 0.735556 0.078201
vt 0.720573 0.058964
vt 0.750539 0.078201
vt 0.735556 0.058964
vt 0.765522 0.078201
vt 0.750539 0.058964
vt 0.780505 0.078201
vt 0.765522 0.058964
vt 0.795488 0.078201
vt 0.780505 0.058964
vt 0.810471 0.078201
vt 0.795488 0.058964
vt 0.825454 0.078201
vt 0.810471 0.058964
vt 0.840437 0.078201
vt 0.825454 0.058964
vt 0.855420 0.078201
vt 0.840437 0.058964
vt 0.855420 0.058964
vt 0.885386 0.097438
vt 0.870403 0.097438
vt 0.900369 0.097438
vt 0.915352 0.097438
vt 0.930335 0.097438
vt 0.705590 0.097438
vt 0.690607 0.097438
vt 0.720573 0.097438
vt 0.735556 0.097438
vt 0.750539 0.097438
vt 0.765522 0.097438
vt 0.780505 0.097438
vt 0.795488 0.097438
vt 0.810471 0.097438
vt 0.825454 0.097438
vt 0.840437 0.097438
vt 0.855420 0.097438
vt 0.885386 0.116674
vt 0.870403 0.116674
vt 0.900369 0.116674
vt 0.915352 0.116674
vt 0.930335 0.116674
vt 0.705590 0.116674
vt 0.690607 0.116674
vt 0.720573 0.116674
vt 0.735556 0.116674
vt 0.750539 0.116674
vt 0.765522 0.116674
vt 0.780505 0.116674
vt 0.795488 0.116674
vt 0.810471 0.116674
vt 0.825454 0.116674
vt 0.840437 0.116674
vt 0.855420 0.116674
vt 0.885386 0.135911
vt 0.870403 0.135911
vt 0.900369 0.135911
vt 0.915352 0.135911
vt 0.930335 0.135911
vt 0.705590 0.135911
vt 0.690607 0.135911
vt 0.720573 0.135911
vt 0.735556 0.135911
vt 0.750539 0.135911
vt 0.765522 0.135911
vt 0.780505 0.135911
vt 0.795488 0.135911
vt 0.810471 0.135911
vt 0.825454 0.135911
vt 0.840437 0.135911
vt 0.855420 0.135911
vt 0.885386 0.155148
vt 0.870403 0.155148
vt 0.900369 0.155148
vt 0.915352 0.155148
vt 0.930335 0.155148
vt 0.705590 0.155148
vt 0.690607 0.155148
vt 0.720573 0.155148
vt 0.735556 0.155148
vt 0.750539 0.155148
vt 0.765522 0.155148
vt 0.780505 0.155148
vt 0.795488 0.155148
vt 0.810471 0.155148
vt 0.825454 0.155148
vt 0.840437 0.155148
vt 0.855420 0.155148
vt 0.885386 0.174385
vt 0.870403 0.174385
vt 0.900369 0.174385
vt 0.915352 0.174385
vt 0.930335 0.174385
vt 0.705590 0.174385
vt 0.690607 0.174385
vt 0.720573 0.174385
vt 0.735556 0.174385
vt 0.750539 0.174385
vt 0.765522 0.174385
vt 0.780505 0.174385
vt 0.795488 0.174385
vt 0.810471 0.174385
vt 0.825454 0.174385
vt 0.840437 0.174385
vt 0.855420 0.174385
vt 0.788775 0.589508
vt 0.792905 0.582255
vt 0.806377 0.598063
vt 0.767783 0.598063
vt 0.754311 0.582255
vt 0.760492 0.577409
vt 0.787325 0.598063
vt 0.767783 0.575708
vt 0.788775 0.606617
vt 0.775075 0.577409
vt 0.792905 0.613870
vt 0.781256 0.582255
vt 0.799086 0.618716
vt 0.785386 0.589508
vt 0.806377 0.620417
vt 0.786836 0.598063
vt 0.813669 0.618716
vt 0.785386 0.606617
vt 0.819850 0.613870
vt 0.781256 0.613870
vt 0.823980 0.606617
vt 0.775075 0.618716
vt 0.825430 0.598063
vt 0.767783 0.620417
vt 0.823980 0.589508
vt 0.760492 0.618716
vt 0.819850 0.582255
vt 0.754311 0.613870
vt 0.813669 0.577409
vt 0.750181 0.606617
vt 0.806377 0.575708
vt 0.748730 0.598063
vt 0.799086 0.577409
vt 0.750181 0.589508
vt 0.605448 0.655136
vt 0.605448 0.737407
vt 0.523012 0.737407
vt 0.418839 0.655136
vt 0.418839 0.634204
vt 0.501275 0.634204
vt 0.418839 0.737407
vt 0.501275 0.655136
vt 0.418839 0.758339
vt 0.501275 0.737407
vt 0.627184 0.655136
vt 0.627184 0.737407
vt 0.523012 0.655136
vt 0.740996 0.738055
vt 0.740451 0.625633
vt 0.781430 0.629604
vt 0.677946 0.738367
vt 0.740996 0.779585
vt 0.677401 0.625945
vt 0.637431 0.734670
vt 0.677401 0.584415
vt 0.790726 0.733019
vt 0.790202 0.630454
vt 0.853216 0.630125
vt 0.740451 0.584103
vt 0.677401 0.575526
vt 0.781958 0.733907
vt 0.677946 0.779384
vt 0.740996 0.788474
vt 0.636440 0.630325
vt 0.628758 0.733878
vt 0.492333 0.768009
vt 0.537893 0.758833
vt 0.537893 0.879375
vt 0.051256 0.945681
vt 0.000081 0.961933
vt 0.000081 0.674541
vt 0.828488 0.819862
vt 0.757636 0.894443
vt 0.795981 0.796998
vt 0.453709 0.794139
vt 0.103909 0.935586
vt 0.051256 0.672540
vt 0.850209 0.854080
vt 0.427901 0.833246
vt 0.156562 0.935586
vt 0.103909 0.671298
vt 0.857836 0.894443
vt 0.418839 0.879375
vt 0.209216 0.935586
vt 0.156562 0.671298
vt 0.850209 0.934807
vt 0.427901 0.925505
vt 0.261869 0.935586
vt 0.209216 0.671298
vt 0.828488 0.969025
vt 0.453709 0.964612
vt 0.314523 0.935586
vt 0.261869 0.671298
vt 0.795981 0.991889
vt 0.492333 0.990742
vt 0.367176 0.945681
vt 0.314523 0.671298
vt 0.757636 0.999918
vt 0.537893 0.999918
vt 0.418351 0.961933
vt 0.367176 0.672540
vt 0.719291 0.991889
vt 0.583454 0.990742
vt 0.331212 0.418442
vt 0.331212 0.464149
vt 0.040837 0.464149
vt 0.686784 0.969025
vt 0.622078 0.964612
vt 0.331212 0.372734
vt 0.040837 0.418442
vt 0.665064 0.934807
vt 0.647885 0.925505
vt 0.331212 0.327026
vt 0.040837 0.372734
vt 0.657436 0.894443
vt 0.656948 0.879375
vt 0.331212 0.281319
vt 0.040837 0.327026
vt 0.665064 0.854080
vt 0.647885 0.833246
vt 0.331212 0.235611
vt 0.040837 0.281319
vt 0.686784 0.819862
vt 0.622078 0.794139
vt 0.331212 0.189903
vt 0.040837 0.235611
vt 0.719291 0.796998
vt 0.583454 0.768009
vt 0.331212 0.144196
vt 0.040837 0.189903
vt 0.757636 0.788969
vt 0.331212 0.098488
vt 0.040837 0.144196
vt 0.528557 0.005973
vt 0.484518 0.005973
vt 0.484518 0.000244
vt 0.440478 0.005973
vt 0.440478 0.000244
vt 0.396438 0.005973
vt 0.396438 0.000244
vt 0.352399 0.005973
vt 0.352399 0.000244
vt 0.308359 0.005973
vt 0.308359 0.000244
vt 0.264319 0.005973
vt 0.264319 0.000244
vt 0.220280 0.005973
vt 0.220280 0.000244
vt 0.176240 0.005973
vt 0.176240 0.000244
vt 0.132200 0.005973
vt 0.132200 0.000244
vt 0.088161 0.005973
vt 0.088161 0.000244
vt 0.044121 0.005973
vt 0.044121 0.000244
vt 0.000081 0.005973
vt 0.000081 0.000244
vt 0.704716 0.005973
vt 0.660676 0.005973
vt 0.660676 0.000244
vt 0.616637 0.005973
vt 0.616637 0.000244
vt 0.572597 0.005973
vt 0.572597 0.000244
vt 0.528557 0.000244
vt 0.042958 0.078384
vt 0.000081 0.078384
vt 0.000081 0.052505
vt 0.690118 0.078384
vt 0.645629 0.086961
vt 0.645629 0.043929
vt 0.602357 0.091153
vt 0.602357 0.039737
vt 0.559481 0.091153
vt 0.559481 0.039737
vt 0.516605 0.091153
vt 0.516605 0.039737
vt 0.473332 0.086961
vt 0.473332 0.043929
vt 0.428843 0.078384
vt 0.428843 0.052505
vt 0.385967 0.078384
vt 0.385967 0.052505
vt 0.343091 0.078384
vt 0.343091 0.052505
vt 0.300215 0.078384
vt 0.300215 0.052505
vt 0.257339 0.078384
vt 0.257339 0.052505
vt 0.214462 0.078384
vt 0.214462 0.052505
vt 0.171586 0.078384
vt 0.171586 0.052505
vt 0.128710 0.078384
vt 0.128710 0.052505
vt 0.085834 0.078384
vt 0.085834 0.052505
vt 0.042958 0.052505
vt 0.629616 0.009562
vt 0.670963 0.009494
vt 0.670963 0.013536
vt 0.000805 0.010733
vt 0.045537 0.010944
vt 0.044924 0.017092
vt 0.087733 0.010924
vt 0.087200 0.017092
vt 0.129086 0.010961
vt 0.128636 0.017092
vt 0.170442 0.010970
vt 0.170073 0.017092
vt 0.212650 0.010797
vt 0.212349 0.017092
vt 0.257497 0.009451
vt 0.257212 0.013722
vt 0.298843 0.009477
vt 0.298590 0.013698
vt 0.340189 0.009445
vt 0.339965 0.013602
vt 0.381534 0.009445
vt 0.381341 0.013602
vt 0.422880 0.009445
vt 0.422718 0.013602
vt 0.464226 0.009445
vt 0.464094 0.013602
vt 0.505572 0.009445
vt 0.505470 0.013602
vt 0.546917 0.009444
vt 0.546846 0.013601
vt 0.588264 0.009447
vt 0.588222 0.013603
vt 0.629608 0.013669
vt 0.629139 0.006468
vt 0.670963 0.006468
vt 0.670963 0.017092
vt 0.630125 0.017092
vt 0.000081 0.006468
vt 0.045333 0.006468
vt 0.856032 0.788474
vt 0.854229 0.748994
vt 0.857836 0.748157
vt 0.087874 0.006468
vt 0.001939 0.381513
vt 0.001939 0.345100
vt 0.029154 0.343328
vt 0.129371 0.006468
vt 0.001939 0.418417
vt 0.029154 0.381513
vt 0.170908 0.006468
vt 0.001939 0.455322
vt 0.029154 0.418417
vt 0.213385 0.006468
vt 0.413533 0.477092
vt 0.372095 0.477092
vt 0.370078 0.455816
vt 0.257892 0.006468
vt 0.454956 0.478269
vt 0.413533 0.455816
vt 0.298784 0.006468
vt 0.298627 0.017092
vt 0.257648 0.017092
vt 0.340070 0.006468
vt 0.340084 0.017092
vt 0.381364 0.006468
vt 0.381514 0.017092
vt 0.422658 0.006468
vt 0.422951 0.017092
vt 0.463951 0.006468
vt 0.464388 0.017092
vt 0.505245 0.006468
vt 0.505825 0.017092
vt 0.546538 0.006468
vt 0.547262 0.017092
vt 0.587813 0.006468
vt 0.588699 0.017092
vt 0.277806 0.039242
vt 0.222261 0.039242
vt 0.222261 0.035483
vt 0.333350 0.039242
vt 0.277806 0.035483
vt 0.388895 0.039242
vt 0.333350 0.035483
vt 0.444440 0.039242
vt 0.388895 0.035483
vt 0.499985 0.039242
vt 0.444440 0.035483
vt 0.555530 0.039242
vt 0.499985 0.035483
vt 0.611075 0.039242
vt 0.555530 0.035483
vt 0.666619 0.039242
vt 0.611075 0.035483
vt 0.722164 0.039242
vt 0.666619 0.035483
vt 0.777709 0.039242
vt 0.722164 0.035483
vt 0.833254 0.039242
vt 0.777709 0.035483
vt 0.888799 0.039242
vt 0.833254 0.035483
vt 0.055626 0.039242
vt 0.000081 0.039242
vt 0.000081 0.035483
vt 0.111171 0.039242
vt 0.055626 0.035483
vt 0.166716 0.039242
vt 0.111171 0.035483
vt 0.166716 0.035483
vt 0.222261 0.017587
vt 0.277806 0.017587
vt 0.333350 0.017587
vt 0.388895 0.017587
vt 0.444440 0.017587
vt 0.499985 0.017587
vt 0.555530 0.017587
vt 0.611075 0.017587
vt 0.666619 0.017587
vt 0.722164 0.017587
vt 0.777709 0.017587
vt 0.888799 0.035483
vt 0.833254 0.017587
vt 0.000081 0.017587
vt 0.055626 0.017587
vt 0.111171 0.017587
vt 0.166716 0.017587
vt 0.040837 0.098488
vt 0.040837 0.091647
vt 0.507564 0.626735
vt 0.557272 0.626802
vt 0.557272 0.633642
vt 0.262740 0.478830
vt 0.308908 0.478763
vt 0.308908 0.485738
vt 0.459286 0.626735
vt 0.507564 0.633709
vt 0.355753 0.478763
vt 0.355753 0.485738
vt 0.412798 0.626735
vt 0.459286 0.633709
vt 0.402598 0.478763
vt 0.402598 0.485738
vt 0.366311 0.626735
vt 0.412798 0.633709
vt 0.449443 0.478763
vt 0.449443 0.485738
vt 0.319823 0.626735
vt 0.366311 0.633709
vt 0.496288 0.478763
vt 0.496288 0.485738
vt 0.273336 0.626735
vt 0.319823 0.633709
vt 0.543133 0.478763
vt 0.543133 0.485738
vt 0.225057 0.626735
vt 0.273336 0.633709
vt 0.589979 0.478763
vt 0.589979 0.485738
vt 0.175350 0.626802
vt 0.225057 0.633709
vt 0.331212 0.470990
vt 0.636147 0.478830
vt 0.636147 0.485671
vt 0.331212 0.091647
vt 0.369590 0.091647
vt 0.988881 0.952393
vt 0.979278 0.999918
vt 0.941044 0.999918
vt 0.053901 0.999918
vt 0.995368 0.905929
vt 0.931440 0.952393
vt 0.106914 0.999918
vt 0.995368 0.860393
vt 0.924953 0.905929
vt 0.158065 0.999918
vt 0.995368 0.814858
vt 0.924953 0.860393
vt 0.209216 0.999918
vt 0.995368 0.769322
vt 0.924953 0.814858
vt 0.260367 0.999918
vt 0.995368 0.723787
vt 0.924953 0.769322
vt 0.311518 0.999918
vt 0.988881 0.677323
vt 0.924953 0.723787
vt 0.364531 0.999918
vt 0.979278 0.629798
vt 0.931440 0.677323
vt 0.369590 0.464149
vt 0.418351 0.999918
vt 0.175350 0.575708
vt 0.220493 0.575708
vt 0.220493 0.620417
vt 0.000081 0.098488
vt 0.000081 0.634204
vt 0.265637 0.575708
vt 0.265637 0.620417
vt 0.051256 0.634204
vt 0.310780 0.575708
vt 0.310780 0.620417
vt 0.103909 0.634204
vt 0.355924 0.575708
vt 0.355924 0.620417
vt 0.156562 0.634204
vt 0.401068 0.575708
vt 0.401068 0.620417
vt 0.209216 0.634204
vt 0.446211 0.575708
vt 0.446211 0.620417
vt 0.261869 0.634204
vt 0.491355 0.575708
vt 0.491355 0.620417
vt 0.314523 0.634204
vt 0.040837 0.470990
vt 0.000081 0.470990
vt 0.536498 0.575708
vt 0.536498 0.620417
vt 0.418351 0.674541
vt 0.367176 0.634204
vt 0.930335 0.058964
vt 0.501275 0.758339
vt 0.853740 0.732690
vt 0.740451 0.575213
vt 0.677946 0.788164
vt 0.627673 0.631262
vt 0.704716 0.000244
vt 0.690118 0.052505
vt 0.000081 0.017092
vt 0.000081 0.292175
vt 0.029154 0.455322
vt 0.888799 0.017587
vt 0.262740 0.485671
vt 0.175350 0.633642
vt 0.369590 0.098488
vt 0.000081 0.999918
vt 0.941044 0.629798
vt 0.369590 0.470990
vt 0.175350 0.620417
vt 0.000081 0.091647
vt 0.000081 0.464149
vt 0.418351 0.634204

# vertex normals
vn 0.000000 0.000000 -1.000000
vn -1.000000 0.000000 0.000000
vn 0.000000 0.000000 1.000000
vn 1.000000 0.000000 0.000000
vn -0.271916 0.952669 0.135957
vn 0.171183 0.923841 0.342366
vn 0.271916 0.952669 -0.135957
vn -0.334912 -0.890368 -0.308349
vn 0.232321 -0.877418 -0.419720
vn 0.334912 -0.890368 0.308349
vn 0.599621 -0.800284 0.000000
vn -0.599621 -0.800284 0.000000
vn -0.707107 0.000000 -0.707107
vn -0.564624 -0.422746 -0.708862
vn -0.654129 -0.211372 -0.726249
vn -0.621005 0.783807 0.000000
vn -0.621004 0.783807 0.000000
vn -0.621006 0.783806 0.000000
vn -0.654129 -0.211372 0.726249
vn -0.707107 0.000000 0.707107
vn -0.707107 0.000000 0.707107
vn 0.707107 0.000000 0.707107
vn 0.564624 -0.422746 0.708862
vn 0.654129 -0.211372 0.726249
vn 0.621005 0.783807 0.000000
vn 0.621004 0.783807 0.000000
vn 0.621006 0.783806 0.000000
vn 0.654129 -0.211372 -0.726249
vn 0.707107 0.000000 -0.707107
vn 0.707107 0.000000 -0.707107
vn -0.154744 -0.743473 -0.650617
vn 0.309488 -0.681530 -0.663124
vn 0.154744 -0.743473 0.650617
vn -0.309488 -0.681530 0.663124
vn -0.232321 -0.877418 0.419720
vn 0.564624 -0.422746 -0.708862
vn -0.564624 -0.422746 0.708862
vn 0.000000 0.783809 0.621001
vn 0.000000 0.783809 -0.621001
vn -0.171183 0.923841 -0.342366
vn -0.999603 0.000000 -0.028171
vn -0.999592 0.000000 -0.028551
vn 0.999716 0.000000 -0.023839
vn 0.999802 0.000000 -0.019886
vn 0.999802 0.000000 -0.019886
vn -0.338768 0.940821 -0.009592
vn 0.338770 0.940821 -0.009509
vn 0.280457 0.948342 -0.148296
vn -0.342562 -0.921675 -0.182119
vn 0.341402 -0.931967 -0.121994
vn 0.282540 -0.952689 -0.112049
vn 0.999607 0.000000 -0.028045
vn 0.999600 0.000000 -0.028298
vn -0.339625 -0.939515 -0.044342
vn 0.339129 -0.940352 -0.027030
vn -0.999802 0.000000 -0.019886
vn -0.999802 0.000000 -0.019886
vn -0.280308 0.950384 0.134896
vn 0.177116 0.919594 0.350679
vn 0.236140 0.943616 0.232007
vn 0.999592 0.000000 -0.028551
vn -0.280765 -0.948238 -0.148377
vn 0.176567 -0.916743 -0.358339
vn -0.999614 0.000000 -0.027791
vn -0.338772 0.940821 -0.009425
vn 0.338772 0.940821 -0.009425
vn 0.637440 0.770289 -0.018047
vn 0.637436 0.770288 -0.018207
vn -0.637435 0.770289 -0.018207
vn -0.637444 0.770289 -0.017887
vn 0.000000 0.770289 -0.637695
vn 0.000000 0.770289 -0.637695
vn -0.176511 0.916805 -0.358207
vn 0.637448 0.770289 -0.017728
vn 0.000000 0.770295 0.637688
vn -0.637448 0.770290 -0.017728
vn 0.643084 -0.749693 -0.156219
vn 0.643149 -0.738233 -0.203400
vn -0.642359 -0.738867 -0.203595
vn -0.641214 -0.759661 -0.108445
vn 0.000000 -0.917455 0.397839
vn 0.000000 -0.981578 0.191062
vn 0.638801 -0.767973 -0.046372
vn -0.637995 -0.769363 -0.032293
vn 0.638030 -0.769796 -0.018234
vn 0.000000 -0.770142 -0.637872
vn -0.637612 -0.770142 -0.018212
vn 0.636089 0.771511 -0.012735
vn 0.634510 0.772811 -0.012620
vn 0.000000 0.770289 0.637695
vn -0.636088 0.771511 -0.012735
vn -0.637567 0.770291 -0.012681
vn 0.000000 -0.770295 -0.637688
vn -0.134735 -0.988643 0.066571
vn -0.149955 -0.988643 0.009943
vn 0.000000 -1.000000 0.000000
vn -0.947173 0.000000 0.320722
vn -0.997809 0.000000 -0.066159
vn -0.991532 -0.129855 0.001085
vn 0.000000 1.000000 0.000000
vn -0.099003 -0.988643 0.113064
vn -0.752339 0.000000 0.658776
vn -0.915641 -0.129855 0.380445
vn -0.048199 -0.988643 0.142345
vn -0.442968 0.000000 0.896537
vn -0.700352 -0.129855 0.701886
vn 0.009943 -0.988643 0.149955
vn -0.066159 0.000000 0.997809
vn -0.378441 -0.129855 0.916472
vn 0.066571 -0.988643 0.134735
vn 0.320722 0.000000 0.947173
vn 0.001085 -0.129855 0.991532
vn 0.113064 -0.988643 0.099003
vn 0.658776 0.000000 0.752339
vn 0.380445 -0.129855 0.915641
vn 0.142345 -0.988643 0.048199
vn 0.896537 0.000000 0.442968
vn 0.701886 -0.129855 0.700352
vn 0.149955 -0.988643 -0.009943
vn 0.997809 0.000000 0.066159
vn 0.916472 -0.129855 0.378441
vn 0.134735 -0.988643 -0.066571
vn 0.947173 0.000000 -0.320722
vn 0.991532 -0.129855 -0.001085
vn 0.099003 -0.988643 -0.113064
vn 0.752339 0.000000 -0.658776
vn 0.915641 -0.129855 -0.380445
vn 0.048199 -0.988643 -0.142345
vn 0.442968 0.000000 -0.896537
vn 0.700352 -0.129855 -0.701886
vn -0.009943 -0.988643 -0.149955
vn 0.066159 0.000000 -0.997809
vn 0.378441 -0.129855 -0.916472
vn -0.066571 -0.988643 -0.134735
vn -0.320722 0.000000 -0.947173
vn -0.001085 -0.129855 -0.991532
vn -0.113064 -0.988643 -0.099003
vn -0.658776 0.000000 -0.752339
vn -0.380445 -0.129855 -0.915641
vn -0.142345 -0.988643 -0.048199
vn -0.896537 0.000000 -0.442968
vn -0.701886 -0.129855 -0.700352
vn -0.916472 -0.129855 -0.378441
vn -0.446785 -0.871605 0.201711
vn -0.489967 -0.871605 0.015379
vn -0.794224 -0.504528 0.338614
vn -0.863349 -0.504528 0.008902
vn -0.335584 -0.871605 0.357334
vn -0.604185 -0.504528 0.616775
vn -0.173294 -0.871605 0.458556
vn -0.322165 -0.504528 0.801037
vn 0.015379 -0.871605 0.489967
vn 0.008902 -0.504528 0.863349
vn 0.201711 -0.871605 0.446785
vn 0.338614 -0.504528 0.794224
vn 0.357334 -0.871605 0.335584
vn 0.616775 -0.504528 0.604185
vn 0.458556 -0.871605 0.173294
vn 0.801037 -0.504528 0.322165
vn 0.489967 -0.871605 -0.015379
vn 0.863349 -0.504528 -0.008902
vn 0.446785 -0.871605 -0.201711
vn 0.794224 -0.504528 -0.338614
vn 0.335584 -0.871605 -0.357334
vn 0.604185 -0.504528 -0.616775
vn 0.173294 -0.871605 -0.458556
vn 0.322165 -0.504528 -0.801037
vn -0.015379 -0.871605 -0.489967
vn -0.008902 -0.504528 -0.863349
vn -0.201711 -0.871605 -0.446785
vn -0.338614 -0.504528 -0.794224
vn -0.357334 -0.871605 -0.335584
vn -0.616775 -0.504528 -0.604185
vn -0.458556 -0.871605 -0.173294
vn -0.801037 -0.504528 -0.322165
vn -0.707107 0.000000 -0.707107
vn 0.707107 0.000000 0.707107
vn -0.999802 0.000000 -0.019886
vn -0.235522 0.943792 0.231919
vn -0.643205 -0.738163 -0.203477
vn -0.649269 -0.707599 0.278842
vn -0.706555 -0.707599 0.009151
vn -0.418540 -0.907921 0.022464
vn -0.493139 -0.707599 0.506081
vn -0.378084 -0.907921 0.180922
vn -0.261932 -0.707599 0.656274
vn -0.280068 -0.907921 0.311837
vn 0.009151 -0.707599 0.706555
vn -0.139414 -0.907921 0.395277
vn 0.278842 -0.707599 0.649270
vn 0.022464 -0.907921 0.418540
vn 0.506081 -0.707599 0.493139
vn 0.180922 -0.907921 0.378084
vn 0.656274 -0.707599 0.261932
vn 0.311837 -0.907921 0.280068
vn 0.706555 -0.707599 -0.009151
vn 0.395277 -0.907921 0.139414
vn 0.649270 -0.707599 -0.278842
vn 0.418540 -0.907921 -0.022464
vn 0.493139 -0.707599 -0.506081
vn 0.378084 -0.907921 -0.180922
vn 0.261932 -0.707599 -0.656274
vn 0.280068 -0.907921 -0.311837
vn -0.009151 -0.707599 -0.706555
vn 0.139414 -0.907921 -0.395277
vn -0.278842 -0.707599 -0.649269
vn -0.022464 -0.907921 -0.418540
vn -0.506081 -0.707599 -0.493139
vn -0.180922 -0.907921 -0.378084
vn -0.656274 -0.707599 -0.261932
vn -0.311837 -0.907921 -0.280068
vn -0.395277 -0.907921 -0.139414
vn -0.851490 -0.383155 0.357990
vn -0.923671 -0.383155 0.004888
vn -0.649678 -0.383155 0.656591
vn -0.348957 -0.383155 0.855232
vn 0.004888 -0.383155 0.923671
vn 0.357990 -0.383155 0.851490
vn 0.656591 -0.383155 0.649678
vn 0.855232 -0.383155 0.348957
vn 0.923671 -0.383155 -0.004888
vn 0.851490 -0.383155 -0.357990
vn 0.649678 -0.383155 -0.656591
vn 0.348958 -0.383155 -0.855232
vn -0.004888 -0.383155 -0.923671
vn -0.357990 -0.383155 -0.851490
vn -0.656591 -0.383155 -0.649678
vn -0.855232 -0.383155 -0.348957
vn -0.923880 0.000000 0.382683
vn -1.000000 0.000000 -0.000000
vn -0.707107 0.000000 0.707107
vn -0.382683 0.000000 0.923880
vn 0.000000 0.000000 1.000000
vn 0.382683 -0.000000 0.923880
vn 0.707107 0.000000 0.707107
vn 0.923880 -0.000000 0.382683
vn 1.000000 -0.000000 -0.000000
vn 0.923880 0.000000 -0.382683
vn 0.707107 0.000000 -0.707107
vn 0.382683 -0.000000 -0.923880
vn 0.000000 -0.000000 -1.000000
vn -0.382683 0.000000 -0.923880
vn -0.707107 -0.000000 -0.707107
vn -0.923880 -0.000000 -0.382683
vn -0.855232 0.383155 0.348957
vn -0.923671 0.383155 -0.004888
vn -0.656591 0.383155 0.649678
vn -0.357990 0.383155 0.851490
vn -0.004888 0.383155 0.923671
vn 0.348957 0.383155 0.855232
vn 0.649678 0.383155 0.656591
vn 0.851490 0.383155 0.357990
vn 0.923671 0.383155 0.004888
vn 0.855232 0.383155 -0.348957
vn 0.656591 0.383155 -0.649678
vn 0.357990 0.383155 -0.851490
vn 0.004888 0.383155 -0.923671
vn -0.348957 0.383155 -0.855231
vn -0.649678 0.383155 -0.656591
vn -0.851490 0.383155 -0.357990
vn -0.656274 0.707599 0.261932
vn -0.706555 0.707599 -0.009151
vn -0.506081 0.707599 0.493139
vn -0.278842 0.707599 0.649270
vn -0.009151 0.707599 0.706555
vn 0.261932 0.707599 0.656274
vn 0.493139 0.707599 0.506081
vn 0.649269 0.707599 0.278842
vn 0.706555 0.707599 0.009151
vn 0.656274 0.707599 -0.261932
vn 0.506081 0.707599 -0.493139
vn 0.278842 0.707599 -0.649269
vn 0.009151 0.707599 -0.706555
vn -0.261932 0.707599 -0.656274
vn -0.493139 0.707599 -0.506081
vn -0.649269 0.707599 -0.278842
vn -0.395277 0.907921 0.139414
vn -0.418540 0.907921 -0.022464
vn -0.311837 0.907921 0.280068
vn -0.180922 0.907921 0.378084
vn -0.022464 0.907921 0.418540
vn 0.139414 0.907921 0.395277
vn 0.280068 0.907921 0.311837
vn 0.378084 0.907921 0.180922
vn 0.418540 0.907921 0.022464
vn 0.395277 0.907921 -0.139414
vn 0.311837 0.907921 -0.280068
vn 0.180922 0.907921 -0.378084
vn 0.022464 0.907921 -0.418540
vn -0.139414 0.907921 -0.395277
vn -0.280068 0.907921 -0.311837
vn -0.378084 0.907921 -0.180922
vn -0.000000 -1.000000 -0.000000
vn 0.000000 1.000000 -0.000000
vn 0.000000 0.342020 -0.939693
vn 0.000000 -0.342020 0.939693
vn 0.000000 -0.342020 0.939693
vn 0.000000 0.939693 0.342020
vn 0.000000 -0.939692 -0.342021
vn -0.984472 -0.175539 0.000000
vn 0.984472 -0.175539 0.000000
vn 0.936346 -0.351078 0.000000
vn 0.860179 -0.509992 0.000000
vn -0.936346 -0.351078 0.000000
vn -0.860179 -0.509992 0.000000
vn -0.923880 0.382683 0.000000
vn -0.980785 0.195090 0.000000
vn 0.374971 -0.126969 -0.918301
vn 0.395016 0.026191 -0.918301
vn -0.707107 0.707107 0.000000
vn -0.923880 0.382683 0.000000
vn 0.184708 -0.123418 -0.975013
vn -0.382683 0.923880 0.000000
vn 0.000000 1.000000 0.000000
vn 0.382683 0.923880 0.000000
vn -0.000000 1.000000 0.000000
vn 0.707107 0.707107 0.000000
vn 0.923880 0.382683 0.000000
vn -0.266552 -0.196895 -0.943495
vn 0.980785 0.195090 0.000000
vn 0.923880 0.382683 0.000000
vn -0.395016 -0.026191 -0.918301
vn 0.947173 -0.320722 0.000000
vn 0.980785 -0.195090 0.000000
vn 0.980785 -0.195090 0.000000
vn -0.374971 0.126969 -0.918301
vn 0.752339 -0.658776 0.000000
vn 0.896537 -0.442968 0.000000
vn -0.297839 0.260799 -0.918301
vn 0.442968 -0.896537 0.000000
vn 0.658776 -0.752339 0.000000
vn -0.175364 0.354925 -0.918301
vn 0.066159 -0.997809 0.000000
vn 0.320722 -0.947173 0.000000
vn -0.026191 0.395016 -0.918301
vn -0.320722 -0.947173 0.000000
vn -0.066159 -0.997809 0.000000
vn 0.126969 0.374971 -0.918301
vn -0.658776 -0.752339 0.000000
vn -0.442968 -0.896537 0.000000
vn 0.260799 0.297839 -0.918301
vn -0.896537 -0.442968 0.000000
vn -0.752339 -0.658776 0.000000
vn 0.354925 0.175364 -0.918301
vn -0.980785 -0.195090 0.000000
vn -0.947173 -0.320722 0.000000
vn -0.997809 0.066159 0.000000
vn -0.896537 0.442968 0.000000
vn -0.947173 0.320722 0.000000
vn -0.658776 0.752339 0.000000
vn -0.752339 0.658776 0.000000
vn -0.320722 0.947173 0.000000
vn -0.442968 0.896537 0.000000
vn 0.066159 0.997809 0.000000
vn -0.066159 0.997809 0.000000
vn 0.442968 0.896537 0.000000
vn 0.320722 0.947173 0.000000
vn 0.752339 0.658776 0.000000
vn 0.658776 0.752339 0.000000
vn 0.947173 0.320722 0.000000
vn 0.896537 0.442968 0.000000
vn 0.997809 -0.066159 0.000000
vn 0.997809 0.066159 0.000000
vn 0.947173 -0.320722 0.000000
vn 0.658776 -0.752339 0.000000
vn 0.752339 -0.658776 0.000000
vn 0.320722 -0.947173 0.000000
vn -0.066159 -0.997809 0.000000
vn 0.066159 -0.997809 0.000000
vn -0.320722 -0.947173 0.000000
vn -0.752339 -0.658776 0.000000
vn -0.658776 -0.752339 0.000000
vn -0.947173 -0.320722 0.000000
vn -0.997809 -0.066159 0.000000
vn -0.329741 -0.021863 -0.943818
vn -0.406849 -0.059001 -0.911588
vn 0.213659 -0.180522 -0.960084
vn -0.421706 0.017985 -0.906554
vn -0.190166 -0.261977 -0.946153
vn -0.222477 0.252204 -0.941752
vn -0.110045 -0.074171 -0.991155
vn -0.021863 0.329741 -0.943818
vn 0.190117 0.264776 -0.945383
vn 0.063756 -0.026408 -0.997616
vn 0.189803 -0.259112 -0.947014
vn 0.204499 -0.167119 -0.964495
vn 0.375232 -0.009336 -0.926884
vn -0.216564 -0.272497 -0.937467
vn 0.329741 0.021863 -0.943818
vn -0.329742 0.021863 -0.943818
vn 0.313008 -0.105987 -0.943818
vn -0.296275 0.146386 -0.943818
vn 0.248622 -0.217702 -0.943818
vn -0.217703 0.248622 -0.943818
vn 0.146385 -0.296274 -0.943818
vn -0.105988 0.313008 -0.943818
vn 0.021863 -0.329741 -0.943818
vn 0.021863 0.329742 -0.943818
vn -0.105987 -0.313008 -0.943818
vn 0.146386 0.296275 -0.943818
vn -0.217702 -0.248622 -0.943818
vn 0.248622 0.217703 -0.943818
vn -0.296274 -0.146385 -0.943818
vn 0.313008 0.105988 -0.943818
vn 0.329742 -0.021863 -0.943818
vn -0.624296 0.041393 -0.780091
vn -0.650632 0.099697 -0.752820
vn -0.553259 0.336401 -0.762062
vn -0.245745 0.574504 -0.780740
vn 0.433957 -0.893948 -0.111972
vn 0.679088 -0.720582 -0.140003
vn 0.633604 -0.763337 -0.125946
vn 0.041393 0.624296 -0.780091
vn 0.065840 -0.993007 -0.097995
vn 0.312971 -0.944698 -0.097950
vn 0.361890 0.506452 -0.782650
vn -0.319179 -0.942614 -0.097995
vn -0.065840 -0.993007 -0.097995
vn 0.608515 0.202964 -0.767148
vn 0.554738 0.335053 -0.761581
vn -0.646220 -0.752720 -0.125752
vn -0.431487 -0.895198 -0.111536
vn 0.626535 0.103013 -0.772555
vn -0.823581 -0.550299 -0.137423
vn -0.690088 -0.710045 -0.140049
vn 0.624296 -0.041393 -0.780091
vn 0.560933 -0.277150 -0.780091
vn 0.412174 -0.470713 -0.780091
vn 0.200665 -0.592614 -0.780091
vn -0.041393 -0.624296 -0.780091
vn -0.277150 -0.560933 -0.780091
vn -0.470713 -0.412174 -0.780091
vn -0.592614 -0.200665 -0.780091
vn -0.602032 0.203854 -0.772011
vn -0.634216 -0.042051 -0.772011
vn -0.634216 0.042051 -0.772011
vn -0.478193 0.418724 -0.772012
vn -0.569847 0.281554 -0.772012
vn -0.281554 0.569847 -0.772012
vn -0.418724 0.478193 -0.772012
vn -0.042051 0.634216 -0.772011
vn -0.203854 0.602032 -0.772011
vn 0.203854 0.602032 -0.772011
vn 0.042051 0.634216 -0.772011
vn 0.418724 0.478193 -0.772012
vn 0.281554 0.569847 -0.772012
vn 0.569847 0.281554 -0.772012
vn 0.478193 0.418724 -0.772012
vn 0.634216 0.042051 -0.772011
vn 0.602032 0.203854 -0.772011
vn 0.602032 -0.203854 -0.772011
vn 0.634216 -0.042051 -0.772011
vn 0.478193 -0.418724 -0.772012
vn 0.569847 -0.281554 -0.772012
vn 0.281554 -0.569847 -0.772012
vn 0.418724 -0.478193 -0.772012
vn 0.042051 -0.634216 -0.772011
vn 0.203854 -0.602032 -0.772011
vn -0.203854 -0.602032 -0.772011
vn -0.042051 -0.634216 -0.772011
vn -0.418724 -0.478193 -0.772012
vn -0.281554 -0.569847 -0.772012
vn -0.569847 -0.281554 -0.772012
vn -0.478193 -0.418724 -0.772012
vn -0.602032 -0.203854 -0.772011
vn -0.947173 0.320722 0.000000
vn -0.997809 -0.066159 0.000000
vn -0.997809 0.066159 0.000000
vn -0.752339 0.658776 0.000000
vn -0.896537 0.442968 0.000000
vn -0.442968 0.896537 0.000000
vn -0.658776 0.752339 0.000000
vn -0.066159 0.997809 0.000000
vn -0.320722 0.947173 0.000000
vn 0.320722 0.947173 0.000000
vn 0.066159 0.997809 0.000000
vn 0.658776 0.752339 0.000000
vn 0.442968 0.896537 0.000000
vn 0.896537 0.442968 0.000000
vn 0.752339 0.658776 0.000000
vn 0.997809 0.066159 0.000000
vn 0.947173 0.320722 0.000000
vn 0.947173 -0.320722 0.000000
vn 0.997809 -0.066159 0.000000
vn 0.896537 -0.442968 0.000000
vn 0.442968 -0.896537 0.000000
vn 0.066159 -0.997809 0.000000
vn 0.320722 -0.947173 0.000000
vn -0.320722 -0.947173 0.000000
vn -0.066159 -0.997809 0.000000
vn -0.442968 -0.896537 0.000000
vn -0.896537 -0.442968 0.000000
vn -0.947173 -0.320722 0.000000
vn -0.195090 -0.980785 0.000000
vn -0.111448 -0.335940 -0.935267
vn -0.076624 -0.385216 -0.919640
vn -0.112918 -0.372795 -0.921018
vn -0.099972 -0.151354 -0.983411
vn -0.149203 -0.270757 -0.951015
vn -0.063567 -0.063567 -0.995951
vn 0.067122 -0.067122 -0.995484
vn 0.152104 -0.272812 -0.949967
vn 0.101576 -0.150283 -0.983411
vn 0.113849 -0.372581 -0.920990
vn 0.110236 -0.331396 -0.937030
vn 0.195090 -0.980785 0.000000
vn 0.947173 -0.320722 0.000000
vn 0.980785 -0.195090 0.000000
vn 0.066159 -0.997809 0.000000
vn -0.066159 0.997809 0.000000
vn -0.066159 -0.997809 0.000000
vn 0.320722 0.947173 0.000000
vn -0.980785 -0.195090 0.000000
vn -0.947173 -0.320722 0.000000
vn 0.980785 0.195090 0.000000
vn -0.980785 0.195090 0.000000
vn 0.320722 -0.947173 0.000000
vn -0.320722 0.947173 0.000000
vn 0.066159 0.997809 0.000000
vn 0.980785 0.195090 0.000000
vn 0.860179 -0.509992 0.000000
vn -0.860179 -0.509992 0.000000
vn -0.980785 -0.195090 0.000000
vn 0.789404 -0.597983 -0.138774
vn -0.364208 -0.603715 -0.709141
vn 0.074738 -0.375735 -0.923709
vn -0.980785 0.195090 0.000000
vn 0.980785 0.195090 0.000000

# Mesh
g Holder
usemtl Mat
f 1/1/1 2/2/1 3/3/1
f 4/4/2 5/5/2 6/6/2
f 7/7/3 8/8/3 9/9/3
f 10/10/4 11/11/4 12/12/4
f 13/13/5 14/14/6 15/15/7
f 16/16/8 17/17/9 18/18/10
f 19/19/11 12/12/11 18/20/10
f 20/21/1 3/3/1 21/22/1
f 22/23/12 6/6/12 16/24/8
f 23/25/3 9/9/3 24/26/3
f 1/27/13 20/28/14 6/6/15
f 8/29/16 1/30/17 5/5/18
f 9/9/19 8/8/20 4/4/21
f 7/7/22 23/25/23 12/12/24
f 2/31/25 7/32/26 11/11/27
f 3/3/28 2/2/29 10/10/30
f 25/33/31 21/22/32 17/17/9
f 26/34/33 24/35/34 27/36/35
f 23/37/23 26/38/33 18/20/10
f 21/39/32 3/40/28 19/19/36
f 20/41/14 25/42/31 16/24/8
f 24/43/34 9/44/19 22/23/37
f 7/32/26 2/31/25 15/45/7
f 8/8/38 7/7/38 14/46/6
f 1/30/17 8/29/16 13/47/5
f 2/2/39 1/1/39 28/48/40
f 29/49/1 30/50/1 31/51/1
f 32/52/41 29/49/42 33/53/42
f 34/54/3 35/55/3 36/56/3
f 37/57/43 34/54/44 38/58/45
f 39/59/46 40/60/47 41/61/48
f 42/62/49 43/63/50 44/64/51
f 45/65/52 46/66/53 37/57/43
f 47/67/54 48/68/55 43/63/50
f 36/69/56 35/70/57 49/71/56
f 50/72/58 51/73/59 52/74/60
f 31/51/61 30/50/61 46/66/53
f 53/75/62 54/76/63 48/68/55
f 55/77/64 49/78/64 32/52/41
f 56/79/65 52/80/66 40/60/47
f 46/81/67 30/82/68 41/83/48
f 29/84/69 32/85/70 39/59/46
f 30/86/71 29/87/72 57/88/73
f 37/89/74 46/81/67 40/90/47
f 49/91/75 37/92/75 52/80/60
f 32/85/70 49/93/76 56/79/65
f 58/94/77 38/58/78 44/95/51
f 36/96/79 55/77/80 42/97/49
f 38/58/81 36/56/81 59/98/82
f 45/65/83 58/94/77 43/99/50
f 55/77/80 60/100/84 47/101/54
f 31/51/85 45/65/83 48/102/55
f 33/53/86 31/51/86 54/103/63
f 60/100/84 33/53/87 53/104/62
f 34/54/88 37/57/89 52/74/60
f 35/55/90 34/54/90 51/105/59
f 49/106/91 35/107/92 50/72/58
f 37/108/93 49/109/93 56/110/93
f 61/111/94 62/112/95 63/113/96
f 64/114/97 65/115/98 66/116/99
f 64/117/100 67/118/100 65/119/100
f 68/120/101 61/111/94 63/113/96
f 69/121/102 64/114/97 70/122/103
f 69/123/100 67/118/100 64/117/100
f 71/124/104 68/120/101 63/113/96
f 72/125/105 69/121/102 73/126/106
f 72/127/100 67/118/100 69/123/100
f 74/128/107 71/124/104 63/113/96
f 75/129/108 72/125/105 76/130/109
f 75/131/100 67/118/100 72/127/100
f 77/132/110 74/128/107 63/113/96
f 78/133/111 75/134/108 79/135/112
f 78/136/100 67/118/100 75/131/100
f 80/137/113 77/132/110 63/113/96
f 81/138/114 78/133/111 82/139/115
f 81/140/100 67/118/100 78/136/100
f 83/141/116 80/137/113 63/113/96
f 84/142/117 81/138/114 85/143/118
f 84/144/100 67/118/100 81/140/100
f 86/145/119 83/141/116 63/113/96
f 87/146/120 84/142/117 88/147/121
f 87/148/100 67/118/100 84/144/100
f 89/149/122 86/145/119 63/113/96
f 90/150/123 87/146/120 91/151/124
f 90/152/100 67/118/100 87/148/100
f 92/153/125 89/149/122 63/113/96
f 93/154/126 90/150/123 94/155/127
f 93/156/100 67/118/100 90/152/100
f 95/157/128 92/153/125 63/113/96
f 96/158/129 93/154/126 97/159/130
f 96/160/100 67/118/100 93/156/100
f 98/161/131 95/157/128 63/113/96
f 99/162/132 96/158/129 100/163/133
f 99/164/100 67/118/100 96/160/100
f 101/165/134 98/161/131 63/113/96
f 102/166/135 99/162/132 103/167/136
f 102/168/100 67/118/100 99/164/100
f 104/169/137 101/165/134 63/113/96
f 105/170/138 102/166/135 106/171/139
f 105/172/100 67/118/100 102/168/100
f 107/173/140 104/169/137 63/113/96
f 108/174/141 105/170/138 109/175/142
f 108/176/100 67/118/100 105/172/100
f 62/112/95 107/173/140 63/113/96
f 65/115/98 108/174/141 110/177/143
f 65/119/100 67/118/100 108/176/100
f 111/178/144 112/179/145 62/180/95
f 112/179/145 111/178/144 113/181/146
f 70/122/103 66/116/99 114/182/147
f 115/183/148 111/178/144 61/184/94
f 111/178/144 115/183/148 116/185/149
f 73/126/106 70/122/103 113/181/146
f 117/186/150 115/183/148 68/187/101
f 115/183/148 117/186/150 118/188/151
f 76/130/109 73/126/106 116/185/149
f 119/189/152 117/186/150 71/190/104
f 117/186/150 119/189/152 120/191/153
f 79/192/112 76/130/109 118/188/151
f 121/193/154 119/194/152 74/195/107
f 119/194/152 121/193/154 122/196/155
f 82/139/115 79/135/112 120/197/153
f 123/198/156 121/193/154 77/199/110
f 121/193/154 123/198/156 124/200/157
f 85/143/118 82/139/115 122/196/155
f 125/201/158 123/198/156 80/202/113
f 123/198/156 125/201/158 126/203/159
f 88/147/121 85/143/118 124/200/157
f 127/204/160 125/201/158 83/205/116
f 125/201/158 127/204/160 128/206/161
f 91/151/124 88/147/121 126/203/159
f 129/207/162 127/204/160 86/208/119
f 127/204/160 129/207/162 130/209/163
f 94/155/127 91/151/124 128/206/161
f 131/210/164 129/207/162 89/211/122
f 129/207/162 131/210/164 132/212/165
f 97/159/130 94/155/127 130/209/163
f 133/213/166 131/210/164 92/214/125
f 131/210/164 133/213/166 134/215/167
f 100/163/133 97/159/130 132/212/165
f 135/216/168 133/213/166 95/217/128
f 133/213/166 135/216/168 136/218/169
f 103/167/136 100/163/133 134/215/167
f 137/219/170 135/216/168 98/220/131
f 135/216/168 137/219/170 138/221/171
f 106/171/139 103/167/136 136/218/169
f 139/222/172 137/219/170 101/223/134
f 137/219/170 139/222/172 140/224/173
f 109/175/142 106/171/139 138/221/171
f 141/225/174 139/222/172 104/226/137
f 139/222/172 141/225/174 142/227/175
f 110/177/143 109/175/142 140/224/173
f 112/179/145 141/225/174 107/228/140
f 141/225/174 112/179/145 114/182/147
f 66/116/99 110/177/143 142/227/175
f 20/21/1 1/1/1 3/3/1
f 22/23/2 4/4/2 6/6/2
f 23/25/3 7/7/3 9/9/3
f 19/19/4 10/10/4 12/12/4
f 28/48/40 13/13/5 15/15/7
f 27/36/35 16/16/8 18/18/10
f 17/229/9 19/19/11 18/20/10
f 25/33/1 20/21/1 21/22/1
f 27/230/35 22/23/12 16/24/8
f 26/231/3 23/25/3 24/26/3
f 5/5/176 1/27/13 6/6/15
f 4/4/18 8/29/16 5/5/18
f 22/23/37 9/9/19 4/4/21
f 11/11/177 7/7/22 12/12/24
f 10/10/27 2/31/25 11/11/27
f 19/19/36 3/3/28 10/10/30
f 16/16/8 25/33/31 17/17/9
f 18/18/10 26/34/33 27/36/35
f 12/12/24 23/37/23 18/20/10
f 17/229/9 21/39/32 19/19/36
f 6/6/15 20/41/14 16/24/8
f 27/230/35 24/43/34 22/23/37
f 14/232/6 7/32/26 15/45/7
f 13/233/5 8/8/38 14/46/6
f 28/234/40 1/30/17 13/47/5
f 15/15/7 2/2/39 28/48/40
f 33/53/1 29/49/1 31/51/1
f 60/100/41 32/52/41 33/53/42
f 38/58/3 34/54/3 36/56/3
f 58/94/43 37/57/43 38/58/45
f 57/88/73 39/59/46 41/61/48
f 59/235/82 42/62/49 44/64/51
f 58/94/43 45/65/52 37/57/43
f 42/62/49 47/67/54 43/63/50
f 55/236/178 36/69/56 49/71/56
f 56/110/179 50/72/58 52/74/60
f 45/65/52 31/51/61 46/66/53
f 47/67/54 53/75/62 48/68/55
f 60/100/41 55/77/64 32/52/41
f 39/59/46 56/79/65 40/60/47
f 40/90/47 46/81/67 41/83/48
f 57/88/73 29/84/69 39/59/46
f 41/61/48 30/86/71 57/88/73
f 52/237/66 37/89/74 40/90/47
f 56/79/179 49/91/75 52/80/60
f 39/59/46 32/85/70 56/79/65
f 43/99/50 58/94/77 44/95/51
f 59/238/180 36/96/79 42/97/49
f 44/239/51 38/58/81 59/98/82
f 48/102/55 45/65/83 43/99/50
f 42/97/49 55/77/80 47/101/54
f 54/240/63 31/51/85 48/102/55
f 53/241/62 33/53/86 54/103/63
f 47/101/54 60/100/84 53/104/62
f 51/73/59 34/54/88 52/74/60
f 50/242/58 35/55/90 51/105/59
f 56/110/179 49/106/91 50/72/58
f 52/74/93 37/108/93 56/110/93
f 70/122/103 64/114/97 66/116/99
f 73/126/106 69/121/102 70/122/103
f 76/130/109 72/125/105 73/126/106
f 79/192/112 75/129/108 76/130/109
f 82/139/115 78/133/111 79/135/112
f 85/143/118 81/138/114 82/139/115
f 88/147/121 84/142/117 85/143/118
f 91/151/124 87/146/120 88/147/121
f 94/155/127 90/150/123 91/151/124
f 97/159/130 93/154/126 94/155/127
f 100/163/133 96/158/129 97/159/130
f 103/167/136 99/162/132 100/163/133
f 106/171/139 102/166/135 103/167/136
f 109/175/142 105/170/138 106/171/139
f 110/177/143 108/174/141 109/175/142
f 66/116/99 65/115/98 110/177/143
f 61/184/94 111/178/144 62/180/95
f 114/182/147 112/179/145 113/181/146
f 113/181/146 70/122/103 114/182/147
f 68/187/101 115/183/148 61/184/94
f 113/181/146 111/178/144 116/185/149
f 116/185/149 73/126/106 113/181/146
f 71/190/104 117/186/150 68/187/101
f 116/185/149 115/183/148 118/188/151
f 118/188/151 76/130/109 116/185/149
f 74/243/107 119/189/152 71/190/104
f 118/188/151 117/186/150 120/191/153
f 120/191/153 79/192/112 118/188/151
f 77/199/110 121/193/154 74/195/107
f 120/197/153 119/194/152 122/196/155
f 122/196/155 82/139/115 120/197/153
f 80/202/113 123/198/156 77/199/110
f 122/196/155 121/193/154 124/200/157
f 124/200/157 85/143/118 122/196/155
f 83/205/116 125/201/158 80/202/113
f 124/200/157 123/198/156 126/203/159
f 126/203/159 88/147/121 124/200/157
f 86/208/119 127/204/160 83/205/116
f 126/203/159 125/201/158 128/206/161
f 128/206/161 91/151/124 126/203/159
f 89/211/122 129/207/162 86/208/119
f 128/206/161 127/204/160 130/209/163
f 130/209/163 94/155/127 128/206/161
f 92/214/125 131/210/164 89/211/122
f 130/209/163 129/207/162 132/212/165
f 132/212/165 97/159/130 130/209/163
f 95/217/128 133/213/166 92/214/125
f 132/212/165 131/210/164 134/215/167
f 134/215/167 100/163/133 132/212/165
f 98/220/131 135/216/168 95/217/128
f 134/215/167 133/213/166 136/218/169
f 136/218/169 103/167/136 134/215/167
f 101/223/134 137/219/170 98/220/131
f 136/218/169 135/216/168 138/221/171
f 138/221/171 106/171/139 136/218/169
f 104/226/137 139/222/172 101/223/134
f 138/221/171 137/219/170 140/224/173
f 140/224/173 109/175/142 138/221/171
f 107/228/140 141/225/174 104/226/137
f 140/224/173 139/222/172 142/227/175
f 142/227/175 110/177/143 140/224/173
f 62/180/95 112/179/145 107/228/140
f 142/227/175 141/225/174 114/182/147
f 114/182/147 66/116/99 142/227/175
f 143/244/181 144/245/182 145/246/183
f 146/247/184 143/244/181 147/248/185
f 148/249/186 146/247/184 149/250/187
f 150/251/188 148/249/186 151/252/189
f 152/253/190 150/254/188 153/255/191
f 154/256/192 152/253/190 155/257/193
f 156/258/194 154/256/192 157/259/195
f 158/260/196 156/258/194 159/261/197
f 160/262/198 158/260/196 161/263/199
f 162/264/200 160/262/198 163/265/201
f 164/266/202 162/264/200 165/267/203
f 166/268/204 164/266/202 167/269/205
f 168/270/206 166/268/204 169/271/207
f 170/272/208 168/270/206 171/273/209
f 172/274/210 170/272/208 173/275/211
f 144/245/182 172/274/210 174/276/212
f 175/277/213 176/278/214 144/245/182
f 177/279/215 175/277/213 143/244/181
f 178/280/216 177/279/215 146/247/184
f 179/281/217 178/280/216 148/249/186
f 180/282/218 179/283/217 150/254/188
f 181/284/219 180/282/218 152/253/190
f 182/285/220 181/284/219 154/256/192
f 183/286/221 182/285/220 156/258/194
f 184/287/222 183/286/221 158/260/196
f 185/288/223 184/287/222 160/262/198
f 186/289/224 185/288/223 162/264/200
f 187/290/225 186/289/224 164/266/202
f 188/291/226 187/290/225 166/268/204
f 189/292/227 188/291/226 168/270/206
f 190/293/228 189/292/227 170/272/208
f 176/278/214 190/293/228 172/274/210
f 191/294/229 192/295/230 176/278/214
f 193/296/231 191/294/229 175/277/213
f 194/297/232 193/296/231 177/279/215
f 195/298/233 194/297/232 178/280/216
f 196/299/234 195/300/233 179/283/217
f 197/301/235 196/299/234 180/282/218
f 198/302/236 197/301/235 181/284/219
f 199/303/237 198/302/236 182/285/220
f 200/304/238 199/303/237 183/286/221
f 201/305/239 200/304/238 184/287/222
f 202/306/240 201/305/239 185/288/223
f 203/307/241 202/306/240 186/289/224
f 204/308/242 203/307/241 187/290/225
f 205/309/243 204/308/242 188/291/226
f 206/310/244 205/309/243 189/292/227
f 192/295/230 206/310/244 190/293/228
f 207/311/245 208/312/246 192/295/230
f 209/313/247 207/311/245 191/294/229
f 210/314/248 209/313/247 193/296/231
f 211/315/249 210/314/248 194/297/232
f 212/316/250 211/317/249 195/300/233
f 213/318/251 212/316/250 196/299/234
f 214/319/252 213/318/251 197/301/235
f 215/320/253 214/319/252 198/302/236
f 216/321/254 215/320/253 199/303/237
f 217/322/255 216/321/254 200/304/238
f 218/323/256 217/322/255 201/305/239
f 219/324/257 218/323/256 202/306/240
f 220/325/258 219/324/257 203/307/241
f 221/326/259 220/325/258 204/308/242
f 222/327/260 221/326/259 205/309/243
f 208/312/246 222/327/260 206/310/244
f 223/328/261 224/329/262 208/312/246
f 225/330/263 223/328/261 207/311/245
f 226/331/264 225/330/263 209/313/247
f 227/332/265 226/331/264 210/314/248
f 228/333/266 227/334/265 211/317/249
f 229/335/267 228/333/266 212/316/250
f 230/336/268 229/335/267 213/318/251
f 231/337/269 230/336/268 214/319/252
f 232/338/270 231/337/269 215/320/253
f 233/339/271 232/338/270 216/321/254
f 234/340/272 233/339/271 217/322/255
f 235/341/273 234/340/272 218/323/256
f 236/342/274 235/341/273 219/324/257
f 237/343/275 236/342/274 220/325/258
f 238/344/276 237/343/275 221/326/259
f 224/329/262 238/344/276 222/327/260
f 239/345/277 240/346/278 224/329/262
f 241/347/279 239/345/277 223/328/261
f 242/348/280 241/347/279 225/330/263
f 243/349/281 242/348/280 226/331/264
f 244/350/282 243/351/281 227/334/265
f 245/352/283 244/350/282 228/333/266
f 246/353/284 245/352/283 229/335/267
f 247/354/285 246/353/284 230/336/268
f 248/355/286 247/354/285 231/337/269
f 249/356/287 248/355/286 232/338/270
f 250/357/288 249/356/287 233/339/271
f 251/358/289 250/357/288 234/340/272
f 252/359/290 251/358/289 235/341/273
f 253/360/291 252/359/290 236/342/274
f 254/361/292 253/360/291 237/343/275
f 240/346/278 254/361/292 238/344/276
f 147/362/185 145/363/183 255/364/293
f 256/365/294 240/366/278 239/367/277
f 149/368/187 147/362/185 255/364/293
f 256/365/294 239/367/277 241/369/279
f 151/370/189 149/368/187 255/364/293
f 256/365/294 241/369/279 242/371/280
f 153/372/191 151/370/189 255/364/293
f 256/365/294 242/371/280 243/373/281
f 155/374/193 153/372/191 255/364/293
f 256/365/294 243/373/281 244/375/282
f 157/376/195 155/374/193 255/364/293
f 256/365/294 244/375/282 245/377/283
f 159/378/197 157/376/195 255/364/293
f 256/365/294 245/377/283 246/379/284
f 161/380/199 159/378/197 255/364/293
f 256/365/294 246/379/284 247/381/285
f 163/382/201 161/380/199 255/364/293
f 256/365/294 247/381/285 248/383/286
f 165/384/203 163/382/201 255/364/293
f 256/365/294 248/383/286 249/385/287
f 167/386/205 165/384/203 255/364/293
f 256/365/294 249/385/287 250/387/288
f 169/388/207 167/386/205 255/364/293
f 256/365/294 250/387/288 251/389/289
f 171/390/209 169/388/207 255/364/293
f 256/365/294 251/389/289 252/391/290
f 173/392/211 171/390/209 255/364/293
f 256/365/294 252/391/290 253/393/291
f 174/394/212 173/392/211 255/364/293
f 256/365/294 253/393/291 254/395/292
f 145/363/183 174/394/212 255/364/293
f 256/365/294 254/395/292 240/366/278
f 257/396/295 258/397/295 259/398/295
f 260/399/2 257/400/2 261/401/2
f 262/402/296 260/399/297 263/403/296
f 258/404/4 262/402/4 264/405/4
f 260/406/298 262/407/298 258/397/298
f 261/408/299 259/398/299 264/405/299
f 265/409/1 266/410/1 267/411/1
f 268/412/2 265/409/2 269/413/300
f 270/414/3 268/412/3 271/415/3
f 266/410/4 270/414/4 272/416/301
f 268/412/100 270/414/100 266/410/100
f 273/417/96 274/418/96 275/419/96
f 267/420/302 272/416/301 275/421/303
f 269/422/1 267/411/1 274/418/1
f 271/423/304 269/413/300 273/424/305
f 272/425/3 271/415/3 276/426/3
f 277/427/3 278/428/3 279/429/3
f 280/430/306 281/431/307 282/432/307
f 283/433/308 284/434/1 285/435/309
f 286/436/3 277/427/3 279/429/3
f 287/437/310 280/430/306 288/438/311
f 289/439/312 284/434/1 283/433/308
f 290/440/3 286/436/3 279/429/3
f 291/441/313 287/437/310 292/442/310
f 293/443/1 284/434/1 289/439/312
f 294/444/3 290/440/3 279/429/3
f 295/445/314 291/441/313 296/446/313
f 297/447/1 284/434/1 293/443/1
f 298/448/3 294/444/3 279/429/3
f 299/449/315 295/445/314 300/450/316
f 301/451/1 284/434/1 297/447/1
f 302/452/3 298/448/3 279/429/3
f 303/453/317 299/449/315 304/454/315
f 305/455/1 284/434/1 301/451/1
f 306/456/3 302/452/3 279/429/3
f 307/457/318 303/453/317 308/458/317
f 309/459/319 284/434/1 305/455/1
f 310/460/3 306/456/3 279/429/3
f 311/461/320 307/457/318 312/462/321
f 313/463/322 284/434/1 309/459/319
f 314/464/3 310/460/3 279/429/3
f 315/465/323 316/466/324 317/467/325
f 318/468/326 284/434/1 313/463/322
f 319/469/3 314/464/3 279/429/3
f 320/470/327 315/465/323 321/471/328
f 322/472/329 284/434/1 318/468/326
f 323/473/3 319/469/3 279/429/3
f 324/474/330 320/470/327 325/475/331
f 326/476/332 284/434/1 322/472/329
f 327/477/3 323/473/3 279/429/3
f 328/478/333 324/474/330 329/479/334
f 330/480/335 284/434/1 326/476/332
f 331/481/3 327/477/3 279/429/3
f 332/482/336 328/478/333 333/483/337
f 334/484/338 284/434/1 330/480/335
f 335/485/3 331/481/3 279/429/3
f 336/486/339 332/482/336 337/487/340
f 338/488/341 284/434/1 334/484/338
f 339/489/3 335/485/3 279/429/3
f 340/490/342 336/486/339 341/491/343
f 342/492/344 284/434/1 338/488/341
f 278/428/3 339/489/3 279/429/3
f 343/493/345 340/490/342 344/494/346
f 285/435/309 284/434/1 342/492/344
f 343/495/1 345/496/1 346/497/1
f 345/496/1 347/498/1 348/499/1
f 347/498/1 349/500/1 350/501/1
f 349/500/1 351/502/1 352/503/1
f 351/502/1 353/504/1 354/505/1
f 353/504/1 355/506/1 356/507/1
f 355/506/1 357/508/1 358/509/1
f 357/508/1 316/510/1 359/511/1
f 316/510/1 315/512/1 360/513/1
f 315/512/1 320/514/1 361/515/1
f 320/514/1 324/516/1 362/517/1
f 324/516/1 328/518/1 363/519/1
f 328/520/1 332/521/1 364/522/1
f 332/521/1 336/523/1 365/524/1
f 336/523/1 340/525/1 366/526/1
f 340/525/1 343/495/1 367/527/1
f 367/528/347 346/529/348 368/530/349
f 346/531/348 348/532/350 369/533/351
f 348/532/350 350/534/352 370/535/353
f 350/534/352 352/536/354 371/537/355
f 352/536/354 354/538/356 372/539/357
f 354/538/356 356/540/358 373/541/359
f 356/540/358 358/542/360 374/543/361
f 358/542/360 359/544/362 375/545/363
f 359/544/362 360/546/328 376/547/364
f 360/546/328 361/548/365 377/549/366
f 361/548/365 362/550/367 378/551/330
f 362/550/367 363/552/368 379/553/369
f 363/552/368 364/554/340 380/555/370
f 364/554/340 365/556/371 381/557/372
f 365/556/371 366/558/373 382/559/342
f 366/558/373 367/528/347 383/560/374
f 384/561/375 385/562/376 386/563/377
f 385/564/376 387/565/378 388/566/379
f 387/565/378 389/567/380 390/568/381
f 389/567/380 391/569/382 392/570/1
f 391/569/382 393/571/383 394/572/384
f 393/571/383 395/573/385 396/574/386
f 395/573/385 397/575/387 398/576/388
f 397/575/387 399/577/389 400/578/390
f 399/577/389 401/579/391 402/580/392
f 401/579/391 403/581/393 404/582/394
f 403/581/393 405/583/395 406/584/396
f 405/583/395 407/585/397 408/586/398
f 407/585/397 409/587/399 410/588/400
f 409/587/399 411/589/401 412/590/402
f 411/589/401 413/591/403 414/592/404
f 413/591/403 384/561/375 415/593/405
f 383/594/406 368/595/407 385/562/376
f 283/596/308 285/597/309 415/593/405
f 368/598/407 369/599/408 387/565/378
f 289/600/312 283/601/308 386/602/377
f 369/599/408 370/603/409 389/567/380
f 293/604/410 289/605/411 388/606/412
f 370/603/409 371/607/413 391/569/382
f 297/608/414 293/604/410 390/609/415
f 371/607/413 372/610/416 393/571/383
f 301/611/417 297/608/414 392/612/418
f 372/610/416 373/613/419 395/573/420
f 305/614/421 301/615/417 394/616/422
f 373/613/419 374/617/423 397/575/387
f 309/618/424 305/614/421 396/619/425
f 374/617/423 375/620/426 399/577/389
f 313/621/322 309/622/319 398/576/388
f 375/620/426 376/623/427 401/579/391
f 318/624/326 313/621/322 400/578/390
f 376/623/427 377/625/428 403/581/393
f 322/626/329 318/624/326 402/580/392
f 377/625/428 378/627/429 405/583/395
f 326/628/332 322/626/329 404/582/394
f 378/627/429 379/629/430 407/585/397
f 330/630/335 326/628/332 406/584/396
f 379/629/430 380/631/431 409/587/399
f 334/632/338 330/630/335 408/586/398
f 380/631/431 381/633/432 411/589/401
f 338/634/341 334/632/338 410/588/400
f 381/633/432 382/635/433 413/591/403
f 342/636/344 338/634/341 412/590/402
f 382/635/433 383/594/406 384/561/375
f 285/597/309 342/636/344 414/592/404
f 416/637/434 417/638/435 418/639/436
f 419/640/437 416/637/434 420/641/438
f 421/642/439 419/640/437 422/643/440
f 423/644/441 421/642/439 424/645/442
f 425/646/443 423/644/441 426/647/444
f 427/648/445 425/646/443 428/649/446
f 429/650/447 427/648/445 430/651/448
f 317/652/449 429/650/447 431/653/450
f 321/654/451 317/652/449 432/655/452
f 325/656/453 321/654/451 433/657/454
f 329/658/455 325/656/453 434/659/456
f 333/660/457 329/658/455 435/661/458
f 337/662/459 333/663/457 436/664/460
f 341/665/461 337/662/459 437/666/462
f 344/667/463 341/665/461 438/668/464
f 417/638/435 344/667/463 439/669/465
f 420/641/466 418/639/467 278/670/468
f 422/643/469 420/641/466 277/671/470
f 424/645/471 422/643/469 286/672/472
f 426/647/473 424/645/471 290/673/474
f 428/649/475 426/647/473 294/674/476
f 430/651/477 428/649/475 298/675/478
f 431/653/479 430/651/477 302/676/480
f 432/655/481 431/653/479 306/677/482
f 433/657/483 432/655/481 310/678/484
f 434/659/327 433/657/483 314/679/485
f 435/661/486 434/659/327 319/680/331
f 436/681/487 435/661/486 323/682/488
f 437/666/489 436/664/487 327/683/490
f 438/668/339 437/666/489 331/684/491
f 439/669/492 438/668/339 335/685/343
f 418/639/467 439/669/492 339/686/493
f 343/493/494 417/687/494 282/688/494
f 440/689/495 441/690/496 442/691/497
f 443/692/3 444/693/3 445/694/3
f 446/695/498 440/689/495 447/696/499
f 444/693/3 448/697/3 449/698/3
f 450/699/1 446/695/498 451/700/500
f 448/697/3 452/701/3 453/702/3
f 454/703/1 450/699/1 455/704/1
f 452/701/3 456/705/3 457/706/3
f 458/707/1 454/703/1 459/708/1
f 456/705/3 460/709/3 461/710/3
f 462/711/501 458/707/1 463/712/1
f 460/709/3 464/713/3 465/714/3
f 466/715/502 462/711/501 467/716/503
f 464/713/3 468/717/3 469/718/3
f 470/719/504 466/715/502 471/720/505
f 317/467/506 316/466/506 311/721/506
f 468/717/3 472/722/3 473/723/3
f 343/493/494 281/724/494 442/725/494
f 345/726/507 343/727/508 441/728/508
f 281/431/307 280/430/306 447/729/466
f 347/730/327 345/726/507 440/731/328
f 280/430/306 287/437/310 451/732/469
f 349/733/330 347/730/327 446/734/331
f 287/437/310 291/441/313 455/735/353
f 351/736/509 349/733/330 450/737/334
f 291/441/313 295/445/314 459/738/510
f 353/739/336 351/736/509 454/740/511
f 295/445/314 299/449/315 463/741/512
f 355/742/339 353/739/336 458/743/340
f 299/449/315 303/453/317 467/744/477
f 357/745/342 355/742/339 462/746/343
f 303/453/317 307/457/318 471/747/361
f 316/748/513 357/745/342 466/749/514
f 311/721/506 316/466/506 470/750/506
f 307/457/318 311/461/320 474/751/515
f 417/752/508 416/753/328 444/754/323
f 282/688/494 417/687/494 443/755/494
f 288/438/311 282/432/307 475/756/516
f 416/753/328 419/757/331 448/758/327
f 292/442/310 288/438/311 445/759/348
f 419/757/331 421/760/517 452/761/330
f 296/446/313 292/442/310 449/762/472
f 421/760/517 423/763/337 456/764/333
f 300/450/316 296/446/313 453/765/518
f 423/763/337 425/766/340 460/767/336
f 304/454/315 300/450/316 457/768/519
f 425/766/340 427/769/343 464/770/339
f 308/458/317 304/454/315 461/771/356
f 427/769/343 429/772/514 468/773/342
f 312/462/321 308/458/317 465/774/480
f 317/467/506 476/775/506 473/776/506
f 429/772/514 317/777/513 472/778/513
f 476/779/520 312/462/321 469/780/482
f 147/248/185 143/244/181 145/246/183
f 149/250/187 146/247/184 147/248/185
f 151/252/189 148/249/186 149/250/187
f 153/781/191 150/251/188 151/252/189
f 155/257/193 152/253/190 153/255/191
f 157/259/195 154/256/192 155/257/193
f 159/261/197 156/258/194 157/259/195
f 161/263/199 158/260/196 159/261/197
f 163/265/201 160/262/198 161/263/199
f 165/267/203 162/264/200 163/265/201
f 167/269/205 164/266/202 165/267/203
f 169/271/207 166/268/204 167/269/205
f 171/273/209 168/270/206 169/271/207
f 173/275/211 170/272/208 171/273/209
f 174/276/212 172/274/210 173/275/211
f 145/246/183 144/245/182 174/276/212
f 143/244/181 175/277/213 144/245/182
f 146/247/184 177/279/215 143/244/181
f 148/249/186 178/280/216 146/247/184
f 150/251/188 179/281/217 148/249/186
f 152/253/190 180/282/218 150/254/188
f 154/256/192 181/284/219 152/253/190
f 156/258/194 182/285/220 154/256/192
f 158/260/196 183/286/221 156/258/194
f 160/262/198 184/287/222 158/260/196
f 162/264/200 185/288/223 160/262/198
f 164/266/202 186/289/224 162/264/200
f 166/268/204 187/290/225 164/266/202
f 168/270/206 188/291/226 166/268/204
f 170/272/208 189/292/227 168/270/206
f 172/274/210 190/293/228 170/272/208
f 144/245/182 176/278/214 172/274/210
f 175/277/213 191/294/229 176/278/214
f 177/279/215 193/296/231 175/277/213
f 178/280/216 194/297/232 177/279/215
f 179/281/217 195/298/233 178/280/216
f 180/282/218 196/299/234 179/283/217
f 181/284/219 197/301/235 180/282/218
f 182/285/220 198/302/236 181/284/219
f 183/286/221 199/303/237 182/285/220
f 184/287/222 200/304/238 183/286/221
f 185/288/223 201/305/239 184/287/222
f 186/289/224 202/306/240 185/288/223
f 187/290/225 203/307/241 186/289/224
f 188/291/226 204/308/242 187/290/225
f 189/292/227 205/309/243 188/291/226
f 190/293/228 206/310/244 189/292/227
f 176/278/214 192/295/230 190/293/228
f 191/294/229 207/311/245 192/295/230
f 193/296/231 209/313/247 191/294/229
f 194/297/232 210/314/248 193/296/231
f 195/298/233 211/315/249 194/297/232
f 196/299/234 212/316/250 195/300/233
f 197/301/235 213/318/251 196/299/234
f 198/302/236 214/319/252 197/301/235
f 199/303/237 215/320/253 198/302/236
f 200/304/238 216/321/254 199/303/237
f 201/305/239 217/322/255 200/304/238
f 202/306/240 218/323/256 201/305/239
f 203/307/241 219/324/257 202/306/240
f 204/308/242 220/325/258 203/307/241
f 205/309/243 221/326/259 204/308/242
f 206/310/244 222/327/260 205/309/243
f 192/295/230 208/312/246 206/310/244
f 207/311/245 223/328/261 208/312/246
f 209/313/247 225/330/263 207/311/245
f 210/314/248 226/331/264 209/313/247
f 211/315/249 227/332/265 210/314/248
f 212/316/250 228/333/266 211/317/249
f 213/318/251 229/335/267 212/316/250
f 214/319/252 230/336/268 213/318/251
f 215/320/253 231/337/269 214/319/252
f 216/321/254 232/338/270 215/320/253
f 217/322/255 233/339/271 216/321/254
f 218/323/256 234/340/272 217/322/255
f 219/324/257 235/341/273 218/323/256
f 220/325/258 236/342/274 219/324/257
f 221/326/259 237/343/275 220/325/258
f 222/327/260 238/344/276 221/326/259
f 208/312/246 224/329/262 222/327/260
f 223/328/261 239/345/277 224/329/262
f 225/330/263 241/347/279 223/328/261
f 226/331/264 242/348/280 225/330/263
f 227/332/265 243/349/281 226/331/264
f 228/333/266 244/350/282 227/334/265
f 229/335/267 245/352/283 228/333/266
f 230/336/268 246/353/284 229/335/267
f 231/337/269 247/354/285 230/336/268
f 232/338/270 248/355/286 231/337/269
f 233/339/271 249/356/287 232/338/270
f 234/340/272 250/357/288 233/339/271
f 235/341/273 251/358/289 234/340/272
f 236/342/274 252/359/290 235/341/273
f 237/343/275 253/360/291 236/342/274
f 238/344/276 254/361/292 237/343/275
f 224/329/262 240/346/278 238/344/276
f 261/408/295 257/396/295 259/398/295
f 263/403/2 260/399/2 261/401/2
f 264/405/297 262/402/296 263/403/296
f 259/782/4 258/404/4 264/405/4
f 257/396/298 260/406/298 258/397/298
f 263/403/299 261/408/299 264/405/299
f 269/422/1 265/409/1 267/411/1
f 271/423/304 268/412/2 269/413/300
f 272/425/3 270/414/3 271/415/3
f 267/420/302 266/410/4 272/416/301
f 265/409/100 268/412/100 266/410/100
f 276/783/96 273/417/96 275/419/96
f 274/784/521 267/420/302 275/421/303
f 273/417/1 269/422/1 274/418/1
f 276/785/522 271/423/304 273/424/305
f 275/786/3 272/425/3 276/426/3
f 288/438/311 280/430/306 282/432/307
f 292/442/310 287/437/310 288/438/311
f 296/446/313 291/441/313 292/442/310
f 300/450/316 295/445/314 296/446/313
f 304/454/315 299/449/315 300/450/316
f 308/458/317 303/453/317 304/454/315
f 312/462/321 307/457/318 308/458/317
f 476/779/520 311/461/320 312/462/321
f 321/471/328 315/465/323 317/467/325
f 325/475/331 320/470/327 321/471/328
f 329/479/334 324/474/330 325/475/331
f 333/483/337 328/478/333 329/479/334
f 337/487/340 332/482/336 333/483/337
f 341/491/343 336/486/339 337/487/340
f 344/494/346 340/490/342 341/491/343
f 417/687/523 343/493/345 344/494/346
f 367/527/1 343/495/1 346/497/1
f 346/497/1 345/496/1 348/499/1
f 348/499/1 347/498/1 350/501/1
f 350/501/1 349/500/1 352/503/1
f 352/503/1 351/502/1 354/505/1
f 354/505/1 353/504/1 356/507/1
f 356/507/1 355/506/1 358/509/1
f 358/509/1 357/508/1 359/511/1
f 359/511/1 316/510/1 360/513/1
f 360/513/1 315/512/1 361/515/1
f 361/515/1 320/514/1 362/517/1
f 362/517/1 324/516/1 363/519/1
f 363/787/1 328/520/1 364/522/1
f 364/522/1 332/521/1 365/524/1
f 365/524/1 336/523/1 366/526/1
f 366/526/1 340/525/1 367/527/1
f 383/560/374 367/528/347 368/530/349
f 368/788/349 346/531/348 369/533/351
f 369/533/351 348/532/350 370/535/353
f 370/535/353 350/534/352 371/537/355
f 371/537/355 352/536/354 372/539/357
f 372/539/357 354/538/356 373/541/359
f 373/541/359 356/540/358 374/543/361
f 374/543/361 358/542/360 375/545/363
f 375/545/363 359/544/362 376/547/364
f 376/547/364 360/546/328 377/549/366
f 377/549/366 361/548/365 378/551/330
f 378/551/330 362/550/367 379/553/369
f 379/553/369 363/552/368 380/555/370
f 380/555/370 364/554/340 381/557/372
f 381/557/372 365/556/371 382/559/342
f 382/559/342 366/558/373 383/560/374
f 415/593/405 384/561/375 386/563/377
f 386/789/377 385/564/376 388/566/379
f 388/566/379 387/565/378 390/568/381
f 390/568/381 389/567/380 392/570/1
f 392/570/1 391/569/382 394/572/384
f 394/572/384 393/571/383 396/574/386
f 396/574/386 395/573/385 398/576/388
f 398/576/388 397/575/387 400/578/390
f 400/578/390 399/577/389 402/580/392
f 402/580/392 401/579/391 404/582/394
f 404/582/394 403/581/393 406/584/396
f 406/584/396 405/583/395 408/586/398
f 408/586/398 407/585/397 410/588/400
f 410/588/400 409/587/399 412/590/402
f 412/590/402 411/589/401 414/592/404
f 414/592/404 413/591/403 415/593/405
f 384/561/375 383/594/406 385/562/376
f 386/563/377 283/596/308 415/593/405
f 385/564/376 368/598/407 387/565/378
f 388/606/412 289/605/411 386/790/524
f 387/565/378 369/599/408 389/567/380
f 390/609/415 293/604/410 388/606/412
f 389/567/380 370/603/409 391/569/382
f 392/612/418 297/608/414 390/609/415
f 391/569/382 371/607/413 393/571/383
f 394/791/422 301/611/417 392/612/418
f 393/571/383 372/610/416 395/573/420
f 396/619/425 305/614/421 394/616/422
f 395/573/420 373/613/419 397/575/387
f 398/576/388 309/622/319 396/574/525
f 397/575/387 374/617/423 399/577/389
f 400/578/390 313/621/322 398/576/388
f 399/577/389 375/620/426 401/579/391
f 402/580/392 318/624/326 400/578/390
f 401/579/391 376/623/427 403/581/393
f 404/582/394 322/626/329 402/580/392
f 403/581/393 377/625/428 405/583/395
f 406/584/396 326/628/332 404/582/394
f 405/583/395 378/627/429 407/585/397
f 408/586/398 330/630/335 406/584/396
f 407/585/397 379/629/430 409/587/399
f 410/588/400 334/632/338 408/586/398
f 409/587/399 380/631/431 411/589/401
f 412/590/402 338/634/341 410/588/400
f 411/589/401 381/633/432 413/591/403
f 414/592/404 342/636/344 412/590/402
f 413/591/403 382/635/433 384/561/375
f 415/593/405 285/597/309 414/592/404
f 420/641/438 416/637/434 418/639/436
f 422/643/440 419/640/437 420/641/438
f 424/645/442 421/642/439 422/643/440
f 426/647/444 423/644/441 424/645/442
f 428/649/446 425/646/443 426/647/444
f 430/651/448 427/648/445 428/649/446
f 431/653/450 429/650/447 430/651/448
f 432/655/452 317/652/449 431/653/450
f 433/657/454 321/654/451 432/655/452
f 434/659/456 325/656/453 433/657/454
f 435/661/458 329/658/455 434/659/456
f 436/681/460 333/660/457 435/661/458
f 437/666/462 337/662/459 436/664/460
f 438/668/464 341/665/461 437/666/462
f 439/669/465 344/667/463 438/668/464
f 418/639/436 417/638/435 439/669/465
f 277/671/470 420/641/466 278/670/468
f 286/672/472 422/643/469 277/671/470
f 290/673/474 424/645/471 286/672/472
f 294/674/476 426/647/473 290/673/474
f 298/675/478 428/649/475 294/674/476
f 302/676/480 430/651/477 298/675/478
f 306/677/482 431/653/479 302/676/480
f 310/678/484 432/655/481 306/677/482
f 314/679/485 433/657/483 310/678/484
f 319/680/331 434/659/327 314/679/485
f 323/682/488 435/661/486 319/680/331
f 327/792/490 436/681/487 323/682/488
f 331/684/491 437/666/489 327/683/490
f 335/685/343 438/668/339 331/684/491
f 339/686/493 439/669/492 335/685/343
f 278/670/468 418/639/467 339/686/493
f 281/724/494 343/493/494 282/688/494
f 447/696/499 440/689/495 442/691/497
f 475/793/3 443/692/3 445/694/3
f 451/700/500 446/695/498 447/696/499
f 445/694/3 444/693/3 449/698/3
f 455/704/1 450/699/1 451/700/500
f 449/698/3 448/697/3 453/702/3
f 459/708/1 454/703/1 455/704/1
f 453/702/3 452/701/3 457/706/3
f 463/712/1 458/707/1 459/708/1
f 457/706/3 456/705/3 461/710/3
f 467/716/503 462/711/501 463/712/1
f 461/710/3 460/709/3 465/714/3
f 471/720/505 466/715/502 467/716/503
f 465/714/3 464/713/3 469/718/3
f 474/794/526 470/719/504 471/720/505
f 476/775/506 317/467/506 311/721/506
f 469/718/3 468/717/3 473/723/3
f 441/795/494 343/493/494 442/725/494
f 440/731/328 345/726/507 441/728/508
f 442/796/527 281/431/307 447/729/466
f 446/734/331 347/730/327 440/731/328
f 447/729/466 280/430/306 451/732/469
f 450/737/334 349/733/330 446/734/331
f 451/732/469 287/437/310 455/735/353
f 454/740/511 351/736/509 450/737/334
f 455/735/353 291/441/313 459/738/510
f 458/743/340 353/739/336 454/740/511
f 459/738/510 295/445/314 463/741/512
f 462/746/343 355/742/339 458/743/340
f 463/741/512 299/449/315 467/744/477
f 466/749/514 357/745/342 462/746/343
f 467/744/477 303/453/317 471/747/361
f 470/797/513 316/748/513 466/749/514
f 474/798/506 311/721/506 470/750/506
f 471/747/361 307/457/318 474/751/515
f 443/799/508 417/752/508 444/754/323
f 475/800/494 282/688/494 443/755/494
f 445/759/348 288/438/311 475/756/516
f 444/754/323 416/753/328 448/758/327
f 449/762/472 292/442/310 445/759/348
f 448/758/327 419/757/331 452/761/330
f 453/765/518 296/446/313 449/762/472
f 452/761/330 421/760/517 456/764/333
f 457/768/519 300/450/316 453/765/518
f 456/764/333 423/763/337 460/767/336
f 461/771/356 304/454/315 457/768/519
f 460/767/336 425/766/340 464/770/339
f 465/774/480 308/458/317 461/771/356
f 464/770/339 427/769/343 468/773/342
f 469/780/482 312/462/321 465/774/480
f 472/801/506 317/467/506 473/776/506
f 468/773/342 429/772/514 472/778/513
f 473/802/528 476/779/520 469/780/482
