{
  "accessors": [
    {
      "bufferView": 3,
      "componentType": 5126,
      "count": 39353,
      "max": [
        1.5903902053833008,
        2.477508544921875,
        2.9303793907165527
      ],
      "min": [
        -1.377385139465332,
        0.07293349504470825,
        -3.465376377105713
      ],
      "type": "VEC3"
    },
    {
      "bufferView": 3,
      "byteOffset": 472236,
      "componentType": 5126,
      "count": 39353,
      "max": [
        1.0,
        1.0,
        0.9999979734420776
      ],
      "min": [
        -0.9999971389770508,
        -1.0,
        -0.999991774559021
      ],
      "type": "VEC3"
    },
    {
      "bufferView": 2,
      "componentType": 5126,
      "count": 39353,
      "max": [
        0.8173366189002991,
        0.9882825613021851
      ],
      "min": [
        0.011073507368564606,
        0.05778235197067261
      ],
      "type": "VEC2"
    },
    {
      "bufferView": 2,
      "byteOffset": 314824,
      "componentType": 5126,
      "count": 39353,
      "max": [
        0.8173366189002991,
        0.9882825613021851
      ],
      "min": [
        0.011073507368564606,
        0.05778235197067261
      ],
      "type": "VEC2"
    },
    {
      "bufferView": 2,
      "byteOffset": 629648,
      "componentType": 5126,
      "count": 39353,
      "max": [
        0.8173366189002991,
        0.9882825613021851
      ],
      "min": [
        0.011073507368564606,
        0.05778235197067261
      ],
      "type": "VEC2"
    },
    {
      "bufferView": 2,
      "byteOffset": 944472,
      "componentType": 5126,
      "count": 39353,
      "max": [
        0.8173366189002991,
        0.9882825613021851
      ],
      "min": [
        0.011073507368564606,
        0.05778235197067261
      ],
      "type": "VEC2"
    },
    {
      "bufferView": 1,
      "componentType": 5125,
      "count": 106347,
      "type": "SCALAR"
    },
    {
      "bufferView": 3,
      "byteOffset": 944472,
      "componentType": 5126,
      "count": 44,
      "max": [
        1.144417405128479,
        2.4614205360412598,
        2.651195526123047
      ],
      "min": [
        -0.9406757354736328,
        1.7136330604553223,
        -1.6395339965820313
      ],
      "type": "VEC3"
    },
    {
      "bufferView": 3,
      "byteOffset": 945000,
      "componentType": 5126,
      "count": 44,
      "max": [
        0.9792359471321106,
        0.6697677373886108,
        0.935120701789856
      ],
      "min": [
        -0.984606146812439,
        0.17470109462738037,
        -0.7426139712333679
      ],
      "type": "VEC3"
    },
    {
      "bufferView": 4,
      "componentType": 5126,
      "count": 44,
      "max": [
        1.0,
        0.9792393445968628,
        0.007852945476770401,
        1.0
      ],
      "min": [
        -0.999995231628418,
        -0.984621524810791,
        -0.0078715980052948,
        1.0
      ],
      "type": "VEC4"
    },
    {
      "bufferView": 2,
      "byteOffset": 1259296,
      "componentType": 5126,
      "count": 44,
      "max": [
        0.0,
        1.0
      ],
      "min": [
        0.0,
        1.0
      ],
      "type": "VEC2"
    },
    {
      "bufferView": 1,
      "byteOffset": 425388,
      "componentType": 5125,
      "count": 84,
      "type": "SCALAR"
    },
    {
      "bufferView": 3,
      "byteOffset": 945528,
      "componentType": 5126,
      "count": 499,
      "max": [
        1.055525779724121,
        2.561113119125366,
        2.4164531230926514
      ],
      "min": [
        -0.8643911480903625,
        2.356177806854248,
        -1.0693576335906982
      ],
      "type": "VEC3"
    },
    {
      "bufferView": 3,
      "byteOffset": 951516,
      "componentType": 5126,
      "count": 499,
      "max": [
        0.9364438056945801,
        0.9999231100082397,
        0.9401280283927917
      ],
      "min": [
        -0.9988948702812195,
        -0.999841570854187,
        -0.9600539207458496
      ],
      "type": "VEC3"
    },
    {
      "bufferView": 2,
      "byteOffset": 1259648,
      "componentType": 5126,
      "count": 499,
      "max": [
        0.862368643283844,
        0.9427332878112793
      ],
      "min": [
        0.01139473170042038,
        0.008570194244384766
      ],
      "type": "VEC2"
    },
    {
      "bufferView": 1,
      "byteOffset": 425724,
      "componentType": 5125,
      "count": 1056,
      "type": "SCALAR"
    },
    {
      "bufferView": 3,
      "byteOffset": 957504,
      "componentType": 5126,
      "count": 8756,
      "max": [
        1.131141185760498,
        1.7402374744415283,
        -0.043300025165081024
      ],
      "min": [
        -0.9038324356079102,
        0.6337683796882629,
        -3.4661474227905273
      ],
      "type": "VEC3"
    },
    {
      "bufferView": 3,
      "byteOffset": 1062576,
      "componentType": 5126,
      "count": 8756,
      "max": [
        0.9999998807907104,
        1.0,
        0.9999916553497314
      ],
      "min": [
        -0.9999916553497314,
        -1.0,
        -0.9999916553497314
      ],
      "type": "VEC3"
    },
    {
      "bufferView": 2,
      "byteOffset": 1263640,
      "componentType": 5126,
      "count": 8756,
      "max": [
        0.9958115816116333,
        0.9808065295219421
      ],
      "min": [
        0.20078416168689728,
        0.0575031042098999
      ],
      "type": "VEC2"
    },
    {
      "bufferView": 1,
      "byteOffset": 429948,
      "componentType": 5125,
      "count": 13866,
      "type": "SCALAR"
    },
    {
      "bufferView": 3,
      "byteOffset": 1167648,
      "componentType": 5126,
      "count": 12813,
      "max": [
        1.0156276226043701,
        1.7986115217208862,
        -1.0794264078140259
      ],
      "min": [
        0.5185908079147339,
        1.3411669731140137,
        -1.445285677909851
      ],
      "type": "VEC3"
    },
    {
      "bufferView": 3,
      "byteOffset": 1321404,
      "componentType": 5126,
      "count": 12813,
      "max": [
        0.9999920129776001,
        0.9963398575782776,
        0.9913025498390198
      ],
      "min": [
        -0.9999916553497314,
        -0.9991174936294556,
        -0.9951073527336121
      ],
      "type": "VEC3"
    },
    {
      "bufferView": 2,
      "byteOffset": 1333688,
      "componentType": 5126,
      "count": 12813,
      "max": [
        0.9808011054992676,
        0.9721688032150269
      ],
      "min": [
        0.10411518812179565,
        0.3347347378730774
      ],
      "type": "VEC2"
    },
    {
      "bufferView": 2,
      "byteOffset": 1436192,
      "componentType": 5126,
      "count": 12813,
      "max": [
        0.9808011054992676,
        0.9721688032150269
      ],
      "min": [
        0.10411518812179565,
        0.3347347378730774
      ],
      "type": "VEC2"
    },
    {
      "bufferView": 2,
      "byteOffset": 1538696,
      "componentType": 5126,
      "count": 12813,
      "max": [
        0.9808011054992676,
        0.9721688032150269
      ],
      "min": [
        0.10411518812179565,
        0.3347347378730774
      ],
      "type": "VEC2"
    },
    {
      "bufferView": 2,
      "byteOffset": 1641200,
      "componentType": 5126,
      "count": 12813,
      "max": [
        0.9808011054992676,
        0.9721688032150269
      ],
      "min": [
        0.10411518812179565,
        0.3347347378730774
      ],
      "type": "VEC2"
    },
    {
      "bufferView": 1,
      "byteOffset": 485412,
      "componentType": 5125,
      "count": 15939,
      "type": "SCALAR"
    },
    {
      "bufferView": 3,
      "byteOffset": 1475160,
      "componentType": 5126,
      "count": 38,
      "max": [
        0.8704020977020264,
        1.6741883754730225,
        -1.4273571968078613
      ],
      "min": [
        0.4976400136947632,
        1.5055228471755981,
        -1.4673607349395752
      ],
      "type": "VEC3"
    },
    {
      "bufferView": 3,
      "byteOffset": 1475616,
      "componentType": 5126,
      "count": 38,
      "max": [
        -0.005599936470389366,
        0.23629161715507507,
        0.971688985824585
      ],
      "min": [
        -0.005699932109564543,
        0.23619718849658966,
        0.9716655015945435
      ],
      "type": "VEC3"
    },
    {
      "bufferView": 2,
      "byteOffset": 1743704,
      "componentType": 5126,
      "count": 38,
      "max": [
        0.9737778902053833,
        0.8511934280395508
      ],
      "min": [
        0.25516125559806824,
        0.13853836059570313
      ],
      "type": "VEC2"
    },
    {
      "bufferView": 1,
      "byteOffset": 549168,
      "componentType": 5125,
      "count": 60,
      "type": "SCALAR"
    },
    {
      "bufferView": 3,
      "byteOffset": 1476072,
      "componentType": 5126,
      "count": 6,
      "max": [
        0.19178780913352966,
        1.6048505306243896,
        -1.3617538213729858
      ],
      "min": [
        0.025726377964019775,
        1.5264655351638794,
        -1.3877865076065063
      ],
      "type": "VEC3"
    },
    {
      "bufferView": 3,
      "byteOffset": 1476144,
      "componentType": 5126,
      "count": 6,
      "max": [
        -0.0038000403437763453,
        0.3079032897949219,
        0.9515066742897034
      ],
      "min": [
        -0.004000028129667044,
        0.3076021671295166,
        0.9514100551605225
      ],
      "type": "VEC3"
    },
    {
      "bufferView": 2,
      "byteOffset": 1744008,
      "componentType": 5126,
      "count": 6,
      "max": [
        1.0,
        1.0
      ],
      "min": [
        0.0,
        0.0
      ],
      "type": "VEC2"
    },
    {
      "bufferView": 1,
      "byteOffset": 549408,
      "componentType": 5125,
      "count": 6,
      "type": "SCALAR"
    },
    {
      "bufferView": 3,
      "byteOffset": 1476216,
      "componentType": 5126,
      "count": 3869,
      "max": [
        -0.18629325926303864,
        0.7606362700462341,
        0.024162007495760918
      ],
      "min": [
        -6.387311935424805,
        -2.695341110229492,
        -0.02416154369711876
      ],
      "type": "VEC3"
    },
    {
      "bufferView": 3,
      "byteOffset": 1522644,
      "componentType": 5126,
      "count": 3869,
      "max": [
        1.0,
        1.0,
        1.0
      ],
      "min": [
        -1.0,
        -1.0,
        -1.0
      ],
      "type": "VEC3"
    },
    {
      "bufferView": 2,
      "byteOffset": 1744056,
      "componentType": 5126,
      "count": 3869,
      "max": [
        0.8634615540504456,
        0.47693002223968506
      ],
      "min": [
        0.07387974858283997,
        0.05745387077331543
      ],
      "type": "VEC2"
    },
    {
      "bufferView": 2,
      "byteOffset": 1775008,
      "componentType": 5126,
      "count": 3869,
      "max": [
        0.8634615540504456,
        0.47693002223968506
      ],
      "min": [
        0.07387974858283997,
        0.05745387077331543
      ],
      "type": "VEC2"
    },
    {
      "bufferView": 2,
      "byteOffset": 1805960,
      "componentType": 5126,
      "count": 3869,
      "max": [
        0.8634615540504456,
        0.47693002223968506
      ],
      "min": [
        0.07387974858283997,
        0.05745387077331543
      ],
      "type": "VEC2"
    },
    {
      "bufferView": 2,
      "byteOffset": 1836912,
      "componentType": 5126,
      "count": 3869,
      "max": [
        0.8634615540504456,
        0.47693002223968506
      ],
      "min": [
        0.07387974858283997,
        0.05745387077331543
      ],
      "type": "VEC2"
    },
    {
      "bufferView": 1,
      "byteOffset": 549432,
      "componentType": 5125,
      "count": 11244,
      "type": "SCALAR"
    },
    {
      "bufferView": 5,
      "componentType": 5126,
      "count": 7,
      "max": [
        1.0,
        0.0,
        1.0000001192092896,
        0.0,
        0.2579614818096161,
        1.0,
        1.0,
        0.0,
        0.9661552309989929,
        1.000000238418579,
        1.0,
        0.0,
        1.0325648784637451,
        1.7627371549606323,
        1.4838141202926636,
        1.0
      ],
      "min": [
        -5.3743416827956025e-08,
        -2.9772543541639607e-08,
        -3.8941436741879443e-07,
        0.0,
        -3.8941436741879443e-07,
        -0.9661553502082825,
        -1.0,
        0.0,
        0.0,
        -1.0,
        0.0,
        0.0,
        -2.938333749771118,
        -0.7415533661842346,
        -1.0832996368408203,
        1.0
      ],
      "type": "MAT4"
    },
    {
      "bufferView": 0,
      "componentType": 5123,
      "count": 39353,
      "type": "VEC4"
    },
    {
      "bufferView": 4,
      "byteOffset": 704,
      "componentType": 5126,
      "count": 39353,
      "max": [
        1.0,
        0.0,
        0.0,
        0.0
      ],
      "min": [
        1.0,
        0.0,
        0.0,
        0.0
      ],
      "type": "VEC4"
    },
    {
      "bufferView": 0,
      "byteOffset": 314824,
      "componentType": 5123,
      "count": 44,
      "type": "VEC4"
    },
    {
      "bufferView": 4,
      "byteOffset": 630352,
      "componentType": 5126,
      "count": 44,
      "max": [
        1.0,
        0.0,
        0.0,
        0.0
      ],
      "min": [
        1.0,
        0.0,
        0.0,
        0.0
      ],
      "type": "VEC4"
    },
    {
      "bufferView": 0,
      "byteOffset": 315176,
      "componentType": 5123,
      "count": 499,
      "type": "VEC4"
    },
    {
      "bufferView": 4,
      "byteOffset": 631056,
      "componentType": 5126,
      "count": 499,
      "max": [
        1.0,
        0.0,
        0.0,
        0.0
      ],
      "min": [
        1.0,
        0.0,
        0.0,
        0.0
      ],
      "type": "VEC4"
    },
    {
      "bufferView": 0,
      "byteOffset": 319168,
      "componentType": 5123,
      "count": 8756,
      "type": "VEC4"
    },
    {
      "bufferView": 4,
      "byteOffset": 639040,
      "componentType": 5126,
      "count": 8756,
      "max": [
        1.0,
        0.0,
        0.0,
        0.0
      ],
      "min": [
        1.0,
        0.0,
        0.0,
        0.0
      ],
      "type": "VEC4"
    },
    {
      "bufferView": 0,
      "byteOffset": 389216,
      "componentType": 5123,
      "count": 12813,
      "type": "VEC4"
    },
    {
      "bufferView": 4,
      "byteOffset": 779136,
      "componentType": 5126,
      "count": 12813,
      "max": [
        1.0,
        0.0,
        0.0,
        0.0
      ],
      "min": [
        1.0,
        0.0,
        0.0,
        0.0
      ],
      "type": "VEC4"
    },
    {
      "bufferView": 0,
      "byteOffset": 491720,
      "componentType": 5123,
      "count": 38,
      "type": "VEC4"
    },
    {
      "bufferView": 4,
      "byteOffset": 984144,
      "componentType": 5126,
      "count": 38,
      "max": [
        1.0,
        0.0,
        0.0,
        0.0
      ],
      "min": [
        1.0,
        0.0,
        0.0,
        0.0
      ],
      "type": "VEC4"
    },
    {
      "bufferView": 0,
      "byteOffset": 492024,
      "componentType": 5123,
      "count": 6,
      "type": "VEC4"
    },
    {
      "bufferView": 4,
      "byteOffset": 984752,
      "componentType": 5126,
      "count": 6,
      "max": [
        1.0,
        0.0,
        0.0,
        0.0
      ],
      "min": [
        1.0,
        0.0,
        0.0,
        0.0
      ],
      "type": "VEC4"
    },
    {
      "bufferView": 6,
      "componentType": 5126,
      "count": 180,
      "max": [
        6.333333492279053
      ],
      "min": [
        0.03333333507180214
      ],
      "type": "SCALAR"
    },
    {
      "bufferView": 8,
      "componentType": 5126,
      "count": 180,
      "max": [
        0.7071067690849304,
        1.376787679419067e-07,
        0.3907574415206909,
        0.7071067690849304
      ],
      "min": [
        0.589328944683075,
        -0.39075717329978943,
        1.376787679419067e-07,
        0.5893291234970093
      ],
      "type": "VEC4"
    },
    {
      "bufferView": 6,
      "byteOffset": 720,
      "componentType": 5126,
      "count": 90,
      "max": [
        3.0
      ],
      "min": [
        0.03333333507180214
      ],
      "type": "SCALAR"
    },
    {
      "bufferView": 8,
      "byteOffset": 2880,
      "componentType": 5126,
      "count": 90,
      "max": [
        0.7071067690849304,
        1.376787679419067e-07,
        0.3907574415206909,
        0.7071067690849304
      ],
      "min": [
        0.589328944683075,
        -0.39075717329978943,
        1.376787679419067e-07,
        0.5893291234970093
      ],
      "type": "VEC4"
    },
    {
      "bufferView": 6,
      "byteOffset": 1080,
      "componentType": 5126,
      "count": 90,
      "max": [
        3.0
      ],
      "min": [
        0.03333333507180214
      ],
      "type": "SCALAR"
    },
    {
      "bufferView": 8,
      "byteOffset": 4320,
      "componentType": 5126,
      "count": 90,
      "max": [
        0.7010982632637024,
        0.4333454668521881,
        0.7010983228683472,
        0.4333454668521881
      ],
      "min": [
        0.5587591528892517,
        0.09198477864265442,
        0.5587590932846069,
        0.09198477864265442
      ],
      "type": "VEC4"
    },
    {
      "bufferView": 6,
      "byteOffset": 1440,
      "componentType": 5126,
      "count": 3,
      "max": [
        3.0
      ],
      "min": [
        0.03333333507180214
      ],
      "type": "SCALAR"
    },
    {
      "bufferView": 7,
      "componentType": 5126,
      "count": 3,
      "max": [
        1.0000001192092896,
        0.9999998211860657,
        0.9999999403953552
      ],
      "min": [
        0.9999999403953552,
        0.9999998211860657,
        0.9999999403953552
      ],
      "type": "VEC3"
    },
    {
      "bufferView": 6,
      "byteOffset": 1452,
      "componentType": 5126,
      "count": 89,
      "max": [
        3.0
      ],
      "min": [
        0.06666667014360428
      ],
      "type": "SCALAR"
    },
    {
      "bufferView": 8,
      "byteOffset": 5760,
      "componentType": 5126,
      "count": 89,
      "max": [
        0.7071067690849304,
        1.376787679419067e-07,
        0.3907574415206909,
        0.7071067690849304
      ],
      "min": [
        0.589328944683075,
        -0.39075717329978943,
        1.376787679419067e-07,
        0.5893291234970093
      ],
      "type": "VEC4"
    },
    {
      "bufferView": 6,
      "byteOffset": 1808,
      "componentType": 5126,
      "count": 180,
      "max": [
        6.333333492279053
      ],
      "min": [
        0.03333333507180214
      ],
      "type": "SCALAR"
    },
    {
      "bufferView": 8,
      "byteOffset": 7184,
      "componentType": 5126,
      "count": 180,
      "max": [
        0.7071067690849304,
        1.376787679419067e-07,
        0.3907574415206909,
        0.7071067690849304
      ],
      "min": [
        0.589328944683075,
        -0.39075717329978943,
        1.376787679419067e-07,
        0.5893291234970093
      ],
      "type": "VEC4"
    },
    {
      "bufferView": 6,
      "byteOffset": 2528,
      "componentType": 5126,
      "count": 182,
      "max": [
        6.333333492279053
      ],
      "min": [
        0.03333333507180214
      ],
      "type": "SCALAR"
    },
    {
      "bufferView": 8,
      "byteOffset": 10064,
      "componentType": 5126,
      "count": 182,
      "max": [
        0.7071067690849304,
        0.4111455976963043,
        -1.376787679419067e-07,
        0.7071067690849304
      ],
      "min": [
        0.5752904415130615,
        -1.376787679419067e-07,
        -0.4111458361148834,
        0.5752906203269958
      ],
      "type": "VEC4"
    },
    {
      "bufferView": 6,
      "byteOffset": 3256,
      "componentType": 5126,
      "count": 182,
      "max": [
        6.333333492279053
      ],
      "min": [
        0.03333333507180214
      ],
      "type": "SCALAR"
    },
    {
      "bufferView": 8,
      "byteOffset": 12976,
      "componentType": 5126,
      "count": 182,
      "max": [
        0.7071067690849304,
        0.4111455976963043,
        -1.376787679419067e-07,
        0.7071067690849304
      ],
      "min": [
        0.5752904415130615,
        -1.376787679419067e-07,
        -0.4111458361148834,
        0.5752906203269958
      ],
      "type": "VEC4"
    },
    {
      "bufferView": 6,
      "byteOffset": 3984,
      "componentType": 5126,
      "count": 182,
      "max": [
        6.333333492279053
      ],
      "min": [
        0.03333333507180214
      ],
      "type": "SCALAR"
    },
    {
      "bufferView": 8,
      "byteOffset": 15888,
      "componentType": 5126,
      "count": 182,
      "max": [
        0.7010982632637024,
        0.4333454668521881,
        0.7010983228683472,
        0.4333454668521881
      ],
      "min": [
        0.5587591528892517,
        0.09198477864265442,
        0.5587590932846069,
        0.09198477864265442
      ],
      "type": "VEC4"
    },
    {
      "bufferView": 6,
      "byteOffset": 4712,
      "componentType": 5126,
      "count": 181,
      "max": [
        6.333333492279053
      ],
      "min": [
        0.03333333507180214
      ],
      "type": "SCALAR"
    },
    {
      "bufferView": 8,
      "byteOffset": 18800,
      "componentType": 5126,
      "count": 181,
      "max": [
        0.7071067690849304,
        1.3767875373105198e-07,
        0.4043959677219391,
        0.7071067690849304
      ],
      "min": [
        0.5800550580024719,
        -0.4043956696987152,
        1.3767875373105198e-07,
        0.580055296421051
      ],
      "type": "VEC4"
    },
    {
      "bufferView": 6,
      "byteOffset": 5436,
      "componentType": 5126,
      "count": 181,
      "max": [
        6.333333492279053
      ],
      "min": [
        0.03333333507180214
      ],
      "type": "SCALAR"
    },
    {
      "bufferView": 8,
      "byteOffset": 21696,
      "componentType": 5126,
      "count": 181,
      "max": [
        0.7071067690849304,
        0.4043956696987152,
        -1.3767875373105198e-07,
        0.7071067690849304
      ],
      "min": [
        0.5800550580024719,
        -1.3767875373105198e-07,
        -0.4043959677219391,
        0.580055296421051
      ],
      "type": "VEC4"
    },
    {
      "bufferView": 6,
      "byteOffset": 6160,
      "componentType": 5126,
      "count": 181,
      "max": [
        6.333333492279053
      ],
      "min": [
        0.03333333507180214
      ],
      "type": "SCALAR"
    },
    {
      "bufferView": 8,
      "byteOffset": 24592,
      "componentType": 5126,
      "count": 181,
      "max": [
        0.7071067690849304,
        0.4043956696987152,
        -1.3767875373105198e-07,
        0.7071067690849304
      ],
      "min": [
        0.5800550580024719,
        -1.3767875373105198e-07,
        -0.4043959677219391,
        0.580055296421051
      ],
      "type": "VEC4"
    }
  ],
  "animations": [
    {
      "channels": [
        {
          "sampler": 0,
          "target": {
            "node": 15,
            "path": "rotation"
          }
        }
      ],
      "name": "back-door-open.L",
      "samplers": [
        {
          "input": 57,
          "interpolation": "LINEAR",
          "output": 58
        }
      ]
    },
    {
      "channels": [
        {
          "sampler": 0,
          "target": {
            "node": 15,
            "path": "rotation"
          }
        }
      ],
      "name": "back-door-open.L.001",
      "samplers": [
        {
          "input": 59,
          "interpolation": "LINEAR",
          "output": 60
        }
      ]
    },
    {
      "channels": [
        {
          "sampler": 0,
          "target": {
            "node": 16,
            "path": "rotation"
          }
        },
        {
          "sampler": 1,
          "target": {
            "node": 16,
            "path": "scale"
          }
        }
      ],
      "name": "boot-door-open",
      "samplers": [
        {
          "input": 61,
          "interpolation": "LINEAR",
          "output": 62
        },
        {
          "input": 63,
          "interpolation": "LINEAR",
          "output": 64
        }
      ]
    },
    {
      "channels": [
        {
          "sampler": 0,
          "target": {
            "node": 15,
            "path": "rotation"
          }
        }
      ],
      "name": "back-door-close.L.001",
      "samplers": [
        {
          "input": 65,
          "interpolation": "LINEAR",
          "output": 66
        }
      ]
    },
    {
      "channels": [
        {
          "sampler": 0,
          "target": {
            "node": 15,
            "path": "rotation"
          }
        }
      ],
      "name": "back-door-open & close.L",
      "samplers": [
        {
          "input": 67,
          "interpolation": "LINEAR",
          "output": 68
        }
      ]
    },
    {
      "channels": [
        {
          "sampler": 0,
          "target": {
            "node": 18,
            "path": "rotation"
          }
        }
      ],
      "name": "back-door-open & close.R",
      "samplers": [
        {
          "input": 69,
          "interpolation": "LINEAR",
          "output": 70
        }
      ]
    },
    {
      "channels": [
        {
          "sampler": 0,
          "target": {
            "node": 18,
            "path": "rotation"
          }
        }
      ],
      "name": "back-door-open & close.R.001",
      "samplers": [
        {
          "input": 71,
          "interpolation": "LINEAR",
          "output": 72
        }
      ]
    },
    {
      "channels": [
        {
          "sampler": 0,
          "target": {
            "node": 16,
            "path": "rotation"
          }
        }
      ],
      "name": "boot-door-open & close",
      "samplers": [
        {
          "input": 73,
          "interpolation": "LINEAR",
          "output": 74
        }
      ]
    },
    {
      "channels": [
        {
          "sampler": 0,
          "target": {
            "node": 14,
            "path": "rotation"
          }
        }
      ],
      "name": "front-door-open & close.L",
      "samplers": [
        {
          "input": 75,
          "interpolation": "LINEAR",
          "output": 76
        }
      ]
    },
    {
      "channels": [
        {
          "sampler": 0,
          "target": {
            "node": 17,
            "path": "rotation"
          }
        }
      ],
      "name": "front-door-open & close.R",
      "samplers": [
        {
          "input": 77,
          "interpolation": "LINEAR",
          "output": 78
        }
      ]
    },
    {
      "channels": [
        {
          "sampler": 0,
          "target": {
            "node": 17,
            "path": "rotation"
          }
        }
      ],
      "name": "front-door-open.R.001",
      "samplers": [
        {
          "input": 79,
          "interpolation": "LINEAR",
          "output": 80
        }
      ]
    }
  ],
  "asset": {
    "extras": {
      "author": "costoWRLD (https://sketchfab.com/wrld_poly)",
      "license": "CC-BY-4.0 (http://creativecommons.org/licenses/by/4.0/)",
      "source": "https://sketchfab.com/3d-models/low-poly-game-ready-nissan-patrol-car-497d495f37f741dbb87caa4507dcba88",
      "title": "Low Poly Game Ready Nissan Patrol Car"
    },
    "generator": "Sketchfab-16.75.0",
    "version": "2.0"
  },
  "bufferViews": [
    {
      "buffer": 0,
      "byteLength": 492072,
      "byteStride": 8,
      "name": "shortBufferViews",
      "target": 34962
    },
    {
      "buffer": 0,
      "byteLength": 594408,
      "byteOffset": 492072,
      "name": "floatBufferViews",
      "target": 34963
    },
    {
      "buffer": 0,
      "byteLength": 1867864,
      "byteOffset": 1086480,
      "byteStride": 8,
      "name": "floatBufferViews",
      "target": 34962
    },
    {
      "buffer": 0,
      "byteLength": 1569072,
      "byteOffset": 2954344,
      "byteStride": 12,
      "name": "floatBufferViews",
      "target": 34962
    },
    {
      "buffer": 0,
      "byteLength": 984848,
      "byteOffset": 4523416,
      "byteStride": 16,
      "name": "floatBufferViews",
      "target": 34962
    },
    {
      "buffer": 0,
      "byteLength": 448,
      "byteOffset": 5508264,
      "name": "floatBufferViews"
    },
    {
      "buffer": 0,
      "byteLength": 6884,
      "byteOffset": 5508712,
      "name": "floatBufferViews"
    },
    {
      "buffer": 0,
      "byteLength": 36,
      "byteOffset": 5515596,
      "byteStride": 12,
      "name": "floatBufferViews"
    },
    {
      "buffer": 0,
      "byteLength": 27488,
      "byteOffset": 5515632,
      "byteStride": 16,
      "name": "floatBufferViews"
    }
  ],
  "buffers": [
    {
      "byteLength": 5543120,
      "uri": "scene.bin"
    }
  ],
  "extensionsUsed": [
    "KHR_materials_emissive_strength",
    "KHR_materials_specular"
  ],
  "images": [
    {
      "uri": "textures/All_in_one_baseColor.png"
    },
    {
      "uri": "textures/All_in_one_metallicRoughness.png"
    },
    {
      "uri": "textures/All_in_one_emissive.png"
    },
    {
      "uri": "textures/windows_baseColor.png"
    },
    {
      "uri": "textures/windows_metallicRoughness.png"
    },
    {
      "uri": "textures/windows_normal.png"
    },
    {
      "uri": "textures/material_metallicRoughness.png"
    },
    {
      "uri": "textures/DashBoard.001_metallicRoughness.png"
    },
    {
      "uri": "textures/Material.001_baseColor.jpeg"
    },
    {
      "uri": "textures/tv_screen_baseColor.png"
    }
  ],
  "materials": [
    {
      "doubleSided": true,
      "emissiveFactor": [
        1.0,
        1.0,
        1.0
      ],
      "emissiveTexture": {
        "index": 2,
        "texCoord": 2
      },
      "extensions": {
        "KHR_materials_emissive_strength": {
          "emissiveStrength": 4.0
        },
        "KHR_materials_specular": {
          "specularColorFactor": [
            1.0,
            1.0,
            1.0
          ],
          "specularFactor": 0.4012359605954716
        }
      },
      "name": "All_in_one",
      "pbrMetallicRoughness": {
        "baseColorTexture": {
          "index": 0
        },
        "metallicRoughnessTexture": {
          "index": 1,
          "texCoord": 1
        }
      }
    },
    {
      "alphaMode": "BLEND",
      "doubleSided": true,
      "name": "windows",
      "normalTexture": {
        "index": 5
      },
      "pbrMetallicRoughness": {
        "baseColorTexture": {
          "index": 3
        },
        "metallicRoughnessTexture": {
          "index": 4
        },
        "roughnessFactor": 0.5
      }
    },
    {
      "doubleSided": true,
      "emissiveFactor": [
        1.0,
        1.0,
        1.0
      ],
      "emissiveTexture": {
        "index": 2
      },
      "extensions": {
        "KHR_materials_emissive_strength": {
          "emissiveStrength": 10.0
        },
        "KHR_materials_specular": {
          "specularColorFactor": [
            1.0,
            1.0,
            1.0
          ],
          "specularFactor": 0.3586369330704143
        }
      },
      "name": "material",
      "pbrMetallicRoughness": {
        "baseColorTexture": {
          "index": 0
        },
        "metallicRoughnessTexture": {
          "index": 6
        }
      }
    },
    {
      "doubleSided": true,
      "emissiveFactor": [
        1.0,
        1.0,
        1.0
      ],
      "emissiveTexture": {
        "index": 2
      },
      "extensions": {
        "KHR_materials_emissive_strength": {
          "emissiveStrength": 5.0
        }
      },
      "name": "DashBoard",
      "pbrMetallicRoughness": {
        "baseColorTexture": {
          "index": 0
        },
        "metallicRoughnessTexture": {
          "index": 1
        }
      }
    },
    {
      "doubleSided": true,
      "emissiveFactor": [
        1.0,
        1.0,
        1.0
      ],
      "emissiveTexture": {
        "index": 2,
        "texCoord": 2
      },
      "extensions": {
        "KHR_materials_emissive_strength": {
          "emissiveStrength": 10.0
        }
      },
      "name": "DashBoard.001",
      "pbrMetallicRoughness": {
        "baseColorTexture": {
          "index": 0
        },
        "metallicFactor": 0.30386675482391196,
        "metallicRoughnessTexture": {
          "index": 7,
          "texCoord": 1
        }
      }
    },
    {
      "doubleSided": true,
      "emissiveFactor": [
        1.0,
        1.0,
        1.0
      ],
      "emissiveTexture": {
        "index": 8
      },
      "extensions": {
        "KHR_materials_emissive_strength": {
          "emissiveStrength": 2.0
        }
      },
      "name": "Material.001",
      "pbrMetallicRoughness": {
        "baseColorTexture": {
          "index": 8
        },
        "metallicFactor": 0.0,
        "roughnessFactor": 0.5
      }
    },
    {
      "doubleSided": true,
      "emissiveFactor": [
        1.0,
        1.0,
        1.0
      ],
      "emissiveTexture": {
        "index": 9
      },
      "extensions": {
        "KHR_materials_emissive_strength": {
          "emissiveStrength": 1.2738506936296008
        }
      },
      "name": "tv_screen",
      "pbrMetallicRoughness": {
        "baseColorTexture": {
          "index": 9
        },
        "metallicFactor": 0.0,
        "roughnessFactor": 0.5
      }
    }
  ],
  "meshes": [
    {
      "name": "Object_0",
      "primitives": [
        {
          "attributes": {
            "JOINTS_0": 43,
            "NORMAL": 1,
            "POSITION": 0,
            "TEXCOORD_0": 2,
            "TEXCOORD_1": 3,
            "TEXCOORD_2": 4,
            "TEXCOORD_3": 5,
            "WEIGHTS_0": 44
          },
          "indices": 6,
          "material": 0,
          "mode": 4
        }
      ]
    },
    {
      "name": "Object_1",
      "primitives": [
        {
          "attributes": {
            "JOINTS_0": 45,
            "NORMAL": 8,
            "POSITION": 7,
            "TANGENT": 9,
            "TEXCOORD_0": 10,
            "TEXCOORD_1": 10,
            "TEXCOORD_2": 10,
            "TEXCOORD_3": 10,
            "WEIGHTS_0": 46
          },
          "indices": 11,
          "material": 1,
          "mode": 4
        }
      ]
    },
    {
      "name": "Object_2",
      "primitives": [
        {
          "attributes": {
            "JOINTS_0": 47,
            "NORMAL": 13,
            "POSITION": 12,
            "TEXCOORD_0": 14,
            "TEXCOORD_1": 14,
            "TEXCOORD_2": 14,
            "TEXCOORD_3": 14,
            "WEIGHTS_0": 48
          },
          "indices": 15,
          "material": 2,
          "mode": 4
        }
      ]
    },
    {
      "name": "Object_3",
      "primitives": [
        {
          "attributes": {
            "JOINTS_0": 49,
            "NORMAL": 17,
            "POSITION": 16,
            "TEXCOORD_0": 18,
            "TEXCOORD_1": 18,
            "TEXCOORD_2": 18,
            "TEXCOORD_3": 18,
            "WEIGHTS_0": 50
          },
          "indices": 19,
          "material": 3,
          "mode": 4
        }
      ]
    },
    {
      "name": "Object_4",
      "primitives": [
        {
          "attributes": {
            "JOINTS_0": 51,
            "NORMAL": 21,
            "POSITION": 20,
            "TEXCOORD_0": 22,
            "TEXCOORD_1": 23,
            "TEXCOORD_2": 24,
            "TEXCOORD_3": 25,
            "WEIGHTS_0": 52
          },
          "indices": 26,
          "material": 4,
          "mode": 4
        }
      ]
    },
    {
      "name": "Object_5",
      "primitives": [
        {
          "attributes": {
            "JOINTS_0": 53,
            "NORMAL": 28,
            "POSITION": 27,
            "TEXCOORD_0": 29,
            "TEXCOORD_1": 29,
            "WEIGHTS_0": 54
          },
          "indices": 30,
          "material": 5,
          "mode": 4
        }
      ]
    },
    {
      "name": "Object_6",
      "primitives": [
        {
          "attributes": {
            "JOINTS_0": 55,
            "NORMAL": 32,
            "POSITION": 31,
            "TEXCOORD_0": 33,
            "WEIGHTS_0": 56
          },
          "indices": 34,
          "material": 6,
          "mode": 4
        }
      ]
    },
    {
      "name": "Object_7",
      "primitives": [
        {
          "attributes": {
            "NORMAL": 36,
            "POSITION": 35,
            "TEXCOORD_0": 37,
            "TEXCOORD_1": 38,
            "TEXCOORD_2": 39,
            "TEXCOORD_3": 40
          },
          "indices": 41,
          "material": 2,
          "mode": 4
        }
      ]
    }
  ],
  "nodes": [
    {
      "children": [
        1
      ],
      "matrix": [
        1.0,
        0.0,
        0.0,
        0.0,
        0.0,
        2.220446049250313e-16,
        -1.0,
        0.0,
        0.0,
        1.0,
        2.220446049250313e-16,
        0.0,
        0.0,
        0.0,
        0.0,
        1.0
      ],
      "name": "Sketchfab_model"
    },
    {
      "children": [
        2
      ],
      "name": "root"
    },
    {
      "children": [
        3,
        20
      ],
      "matrix": [
        1.0,
        0.0,
        0.0,
        0.0,
        0.0,
        2.220446049250313e-16,
        1.0,
        0.0,
        0.0,
        -1.0,
        2.220446049250313e-16,
        0.0,
        0.0,
        0.0,
        0.0,
        1.0
      ],
      "name": "GLTF_SceneRootNode"
    },
    {
      "children": [
        4
      ],
      "matrix": [
        1.0,
        0.0,
        0.0,
        0.0,
        0.0,
        1.0,
        0.0,
        0.0,
        0.0,
        0.0,
        1.0,
        0.0,
        0.08737170696258545,
        1.0832996368408203,
        -0.7415533661842346,
        1.0
      ],
      "name": "Car Open Doors_7"
    },
    {
      "children": [
        5,
        7,
        8,
        9,
        10,
        11,
        12,
        13,
        6
      ],
      "name": "GLTF_created_0"
    },
    {
      "children": [
        14,
        15,
        16,
        17,
        18,
        19
      ],
      "name": "GLTF_created_0_rootJoint"
    },
    {
      "name": "Nissan Patrol LWB _6"
    },
    {
      "mesh": 0,
      "name": "Object_7",
      "skin": 0
    },
    {
      "mesh": 1,
      "name": "Object_8",
      "skin": 0
    },
    {
      "mesh": 2,
      "name": "Object_9",
      "skin": 0
    },
    {
      "mesh": 3,
      "name": "Object_10",
      "skin": 0
    },
    {
      "mesh": 4,
      "name": "Object_11",
      "skin": 0
    },
    {
      "mesh": 5,
      "name": "Object_12",
      "skin": 0
    },
    {
      "mesh": 6,
      "name": "Object_13",
      "skin": 0
    },
    {
      "name": "front_door.L_0",
      "rotation": [
        0.7071068286895752,
        1.376787679419067e-07,
        1.376787679419067e-07,
        0.7071068286895752
      ],
      "scale": [
        1.0,
        0.9999997615814209,
        1.0
      ],
      "translation": [
        -1.1199370622634888,
        0.099265456199646,
        -0.9059513211250305
      ]
    },
    {
      "name": "back_door.L_1",
      "rotation": [
        0.7071068286895752,
        1.3767878215276141e-07,
        1.3767878215276141e-07,
        0.7071068286895752
      ],
      "translation": [
        -1.1064709424972534,
        0.40051400661468506,
        0.578416109085083
      ]
    },
    {
      "name": "Boot_Door_2",
      "rotation": [
        0.7010982632637024,
        0.09198477119207382,
        0.7010983228683472,
        0.09198477864265442
      ],
      "scale": [
        0.9999999403953552,
        0.9999998211860657,
        0.9999999403953552
      ],
      "translation": [
        0.002740107476711273,
        1.3777546882629395,
        3.1257214546203613
      ]
    },
    {
      "name": "front_door.R_3",
      "rotation": [
        0.7071068286895752,
        -1.376787679419067e-07,
        -1.376787679419067e-07,
        0.7071068286895752
      ],
      "scale": [
        1.0,
        0.9999997615814209,
        1.0
      ],
      "translation": [
        1.1199370622634888,
        0.099265456199646,
        -0.9059513211250305
      ]
    },
    {
      "name": "back_door.R_4",
      "rotation": [
        0.7071068286895752,
        -1.3767878215276141e-07,
        -1.3767878215276141e-07,
        0.7071068286895752
      ],
      "translation": [
        1.1064709424972534,
        0.40051400661468506,
        0.578416109085083
      ]
    },
    {
      "name": "neutral_bone_5",
      "rotation": [
        -0.7071068286895752,
        0.0,
        0.0,
        0.7071068286895752
      ]
    },
    {
      "children": [
        21
      ],
      "matrix": [
        1.0,
        0.0,
        0.0,
        0.0,
        0.0,
        1.0,
        0.0,
        0.0,
        0.0,
        0.0,
        1.0,
        0.0,
        4.017303466796875,
        6.305136203765869,
        4.682928085327148,
        1.0
      ],
      "name": "Text_8"
    },
    {
      "mesh": 7,
      "name": "Object_21"
    }
  ],
  "samplers": [
    {
      "magFilter": 9729,
      "minFilter": 9987,
      "wrapS": 10497,
      "wrapT": 10497
    }
  ],
  "scene": 0,
  "scenes": [
    {
      "name": "Sketchfab_Scene",
      "nodes": [
        0
      ]
    }
  ],
  "skins": [
    {
      "inverseBindMatrices": 42,
      "joints": [
        5,
        14,
        15,
        16,
        17,
        18,
        19
      ],
      "skeleton": 5
    }
  ],
  "textures": [
    {
      "sampler": 0,
      "source": 0
    },
    {
      "sampler": 0,
      "source": 1
    },
    {
      "sampler": 0,
      "source": 2
    },
    {
      "sampler": 0,
      "source": 3
    },
    {
      "sampler": 0,
      "source": 4
    },
    {
      "sampler": 0,
      "source": 5
    },
    {
      "sampler": 0,
      "source": 6
    },
    {
      "sampler": 0,
      "source": 7
    },
    {
      "sampler": 0,
      "source": 8
    },
    {
      "sampler": 0,
      "source": 9
    }
  ]
}
